<?xml version="1.0" encoding="UTF-8"?>
<svg version="1.1" xmlns="http://www.w3.org/2000/svg" width="224" height="200">
<path d="M0 0 C2.75 1.25 2.75 1.25 5 3 C5.763125 3.53625 6.52625 4.0725 7.3125 4.625 C9.88286335 8.24254841 9.66552908 11.70083516 9 16 C7.5 19.0625 7.5 19.0625 6 21 C11.58802516 24.00942398 16.72600212 25.85231059 22.875 27.3125 C34.98724063 30.5120762 41.49410388 35.61231332 48.37719727 45.94165039 C51.2361923 50.17814572 54.08973707 52.82718049 58.375 55.65234375 C61.35342553 58.12243223 62.15721513 61.33602848 63 65 C63.4021875 66.7325 63.4021875 66.7325 63.8125 68.5 C64.26295298 76.90845561 61.25826427 81.81534177 56 88 C54.7625 89.36125 54.7625 89.36125 53.5 90.75 C51.06611026 93.5817371 49.60762103 96.70372034 48 100.0625 C44.22784091 107.80787233 39.95502492 111.89741618 32 115 C9.67615928 122.34576789 -18.72031626 124.04075416 -40.5625 114.3125 C-47.65694236 110.4514496 -50.75355513 105.45984759 -54.3125 98.4375 C-56.23723 94.77612436 -58.26025095 92.82924407 -61.625 90.4375 C-66.11770394 87.20066005 -67.97670622 84.4321659 -69 79 C-70.66753582 66.85081043 -63.37076143 53.36051676 -56.32470703 43.87109375 C-55.88755371 43.29488281 -55.45040039 42.71867187 -55 42.125 C-54.58476074 41.57714844 -54.16952148 41.02929688 -53.74169922 40.46484375 C-49.10269659 34.55435673 -44.68020527 31.5282534 -37.51171875 29.421875 C-36.80852005 29.20557434 -36.10532135 28.98927368 -35.3808136 28.76641846 C-33.15276991 28.08370656 -30.92039153 27.41666419 -28.6875 26.75 C-27.16830573 26.28748866 -25.64942163 25.82395723 -24.13085938 25.359375 C-20.42405659 24.22775155 -16.71328809 23.11014848 -13 22 C-12.85806765 19.91018344 -12.85806765 19.91018344 -14 17.875 C-15.30198804 14.13178439 -15.93979029 10.86115389 -15 7 C-11.13750861 0.77774943 -7.11983092 -1.14835983 0 0 Z M-34.77734375 54.921875 C-39.45183148 62.8670107 -37.6762897 75.77991043 -35.5 84.3125 C-34.81368405 87.46608128 -34.81368405 87.46608128 -33 90 C-27.3860696 92.7577202 -21.65823218 93.80921449 -15.5 94.6875 C-14.63068848 94.81342529 -13.76137695 94.93935059 -12.86572266 95.0690918 C0.47168331 96.87009277 16.66162249 98.561632 28 90 C30.64763428 84.99615722 31.49270512 80.80564055 31.375 75.125 C31.36629883 74.42463623 31.35759766 73.72427246 31.34863281 73.00268555 C31.13220476 65.3434388 29.73440495 58.42443711 24 53 C10.72025112 44.44644996 -23.39303304 42.61180716 -34.77734375 54.921875 Z " fill="#34D4E7" transform="translate(70,36)"/>
<path d="M0 0 C0.91869873 0.00757324 1.83739746 0.01514648 2.78393555 0.02294922 C14.50510428 0.3075394 22.76826199 4.02159543 31.24609375 12.02734375 C39.0282971 20.27531489 40.93492563 30.73893383 40.84375 41.69140625 C40.1517648 50.90826472 36.84608421 59.59421447 29.96875 65.8984375 C25.750149 69.21579192 21.80080109 70.42659979 16.5625 71.4375 C16.59730469 72.34113281 16.63210937 73.24476562 16.66796875 74.17578125 C16.69503906 75.35527344 16.72210938 76.53476563 16.75 77.75 C16.78480469 78.92175781 16.81960937 80.09351562 16.85546875 81.30078125 C16.5625 84.4375 16.5625 84.4375 15.1875 86.28125 C13.38942003 87.56065306 11.57484964 88.53541223 9.5625 89.4375 C10.325625 90.13875 11.08875 90.84 11.875 91.5625 C17.17376952 97.23095112 18.13247892 101.85789646 17.90625 109.46484375 C17.30704218 114.64662952 15.73287596 118.46443095 11.84375 122 C5.4480825 126.76965034 -0.59186405 127.15999047 -8.4375 126.4375 C-14.65717578 124.47634097 -18.56367262 119.64977551 -21.75 114.1875 C-23.46327106 107.33441575 -23.09740944 101.36816199 -19.59375 95.19921875 C-18.02450586 92.80824204 -16.32012453 90.58907089 -14.4375 88.4375 C-15.25025391 87.9412915 -16.06300781 87.44508301 -16.90039062 86.93383789 C-19.76056011 84.11963149 -20.02786842 82.66391479 -20.08093262 78.72496033 C-20.06453735 77.98943436 -20.04814209 77.25390839 -20.03125 76.49609375 C-20.03129028 75.73200699 -20.03133057 74.96792023 -20.03137207 74.18067932 C-20.02602184 72.56934357 -20.00845984 70.95800806 -19.97949219 69.34692383 C-19.93757749 66.87956156 -19.93842853 64.41492441 -19.9453125 61.94726562 C-19.93482148 60.38018936 -19.92188383 58.81312715 -19.90625 57.24609375 C-19.90604858 56.50854355 -19.90584717 55.77099335 -19.90563965 55.01109314 C-19.83841654 52.10622517 -19.776859 49.9582675 -18.16601562 47.48632812 C-16.10236323 46.23414583 -14.71763836 45.99016501 -12.3125 45.84765625 C-11.52359375 45.78513672 -10.7346875 45.72261719 -9.921875 45.65820312 C-8.26586817 45.55274986 -6.6096091 45.45118568 -4.953125 45.35351562 C-0.22242187 45.0652932 -0.22242187 45.0652932 3.640625 42.5703125 C4.93910152 39.56621005 4.39074539 37.54342021 3.5625 34.4375 C2.37825674 33.02172523 2.37825674 33.02172523 -1 33.375 C-2.7015625 33.4059375 -2.7015625 33.4059375 -4.4375 33.4375 C-4.70304687 34.00339844 -4.96859375 34.56929687 -5.2421875 35.15234375 C-5.59539062 35.88582031 -5.94859375 36.61929688 -6.3125 37.375 C-6.83457031 38.47134766 -6.83457031 38.47134766 -7.3671875 39.58984375 C-8.4375 41.4375 -8.4375 41.4375 -10.4375 42.4375 C-14.56033093 42.67128885 -18.6847708 42.66586531 -22.8137207 42.67773438 C-24.86385563 42.6874472 -26.91299074 42.71847445 -28.96289062 42.75 C-30.25259766 42.75515625 -31.54230469 42.7603125 -32.87109375 42.765625 C-34.65084595 42.77964355 -34.65084595 42.77964355 -36.46655273 42.79394531 C-39.4375 42.4375 -39.4375 42.4375 -41.32080078 41.04785156 C-43.70585092 37.608457 -42.91222411 33.41193438 -42.4375 29.4375 C-40.39173996 19.83606621 -35.11248195 12.57468089 -27.203125 6.80859375 C-18.72073679 1.77029579 -9.77514407 -0.11350734 0 0 Z " fill="#34D5E8" transform="translate(168.4375,32.5625)"/>
<path d="M0 0 C0.91869873 0.00757324 1.83739746 0.01514648 2.78393555 0.02294922 C14.50510428 0.3075394 22.76826199 4.02159543 31.24609375 12.02734375 C39.0282971 20.27531489 40.93492563 30.73893383 40.84375 41.69140625 C40.1517648 50.90826472 36.84608421 59.59421447 29.96875 65.8984375 C25.750149 69.21579192 21.80080109 70.42659979 16.5625 71.4375 C16.59730469 72.34113281 16.63210937 73.24476562 16.66796875 74.17578125 C16.69503906 75.35527344 16.72210938 76.53476563 16.75 77.75 C16.78480469 78.92175781 16.81960937 80.09351562 16.85546875 81.30078125 C16.5625 84.4375 16.5625 84.4375 15.1875 86.28125 C13.38942003 87.56065306 11.57484964 88.53541223 9.5625 89.4375 C10.325625 90.13875 11.08875 90.84 11.875 91.5625 C17.17376952 97.23095112 18.13247892 101.85789646 17.90625 109.46484375 C17.30704218 114.64662952 15.73287596 118.46443095 11.84375 122 C5.4480825 126.76965034 -0.59186405 127.15999047 -8.4375 126.4375 C-14.65717578 124.47634097 -18.56367262 119.64977551 -21.75 114.1875 C-23.46327106 107.33441575 -23.09740944 101.36816199 -19.59375 95.19921875 C-18.02450586 92.80824204 -16.32012453 90.58907089 -14.4375 88.4375 C-15.25025391 87.9412915 -16.06300781 87.44508301 -16.90039062 86.93383789 C-19.76056011 84.11963149 -20.02786842 82.66391479 -20.08093262 78.72496033 C-20.06453735 77.98943436 -20.04814209 77.25390839 -20.03125 76.49609375 C-20.03129028 75.73200699 -20.03133057 74.96792023 -20.03137207 74.18067932 C-20.02602184 72.56934357 -20.00845984 70.95800806 -19.97949219 69.34692383 C-19.93757749 66.87956156 -19.93842853 64.41492441 -19.9453125 61.94726562 C-19.93482148 60.38018936 -19.92188383 58.81312715 -19.90625 57.24609375 C-19.90604858 56.50854355 -19.90584717 55.77099335 -19.90563965 55.01109314 C-19.83841654 52.10622517 -19.776859 49.9582675 -18.16601562 47.48632812 C-16.10236323 46.23414583 -14.71763836 45.99016501 -12.3125 45.84765625 C-11.52359375 45.78513672 -10.7346875 45.72261719 -9.921875 45.65820312 C-8.26586817 45.55274986 -6.6096091 45.45118568 -4.953125 45.35351562 C-0.22242187 45.0652932 -0.22242187 45.0652932 3.640625 42.5703125 C4.93910152 39.56621005 4.39074539 37.54342021 3.5625 34.4375 C2.37825674 33.02172523 2.37825674 33.02172523 -1 33.375 C-2.7015625 33.4059375 -2.7015625 33.4059375 -4.4375 33.4375 C-4.70304687 34.00339844 -4.96859375 34.56929687 -5.2421875 35.15234375 C-5.59539062 35.88582031 -5.94859375 36.61929688 -6.3125 37.375 C-6.83457031 38.47134766 -6.83457031 38.47134766 -7.3671875 39.58984375 C-8.4375 41.4375 -8.4375 41.4375 -10.4375 42.4375 C-14.56033093 42.67128885 -18.6847708 42.66586531 -22.8137207 42.67773438 C-24.86385563 42.6874472 -26.91299074 42.71847445 -28.96289062 42.75 C-30.25259766 42.75515625 -31.54230469 42.7603125 -32.87109375 42.765625 C-34.65084595 42.77964355 -34.65084595 42.77964355 -36.46655273 42.79394531 C-39.4375 42.4375 -39.4375 42.4375 -41.32080078 41.04785156 C-43.70585092 37.608457 -42.91222411 33.41193438 -42.4375 29.4375 C-40.39173996 19.83606621 -35.11248195 12.57468089 -27.203125 6.80859375 C-18.72073679 1.77029579 -9.77514407 -0.11350734 0 0 Z M-20.4375 9.4375 C-21.24703125 9.86160156 -22.0565625 10.28570312 -22.890625 10.72265625 C-29.92410461 14.90315158 -34.63830363 20.74043741 -36.8125 28.6875 C-37.57449916 32.62587384 -37.57449916 32.62587384 -37.4375 37.4375 C-28.8575 37.4375 -20.2775 37.4375 -11.4375 37.4375 C-10.4475 33.9725 -10.4475 33.9725 -9.4375 30.4375 C-6.92478122 27.44156607 -5.451157 27.43880067 -1.5 27.0625 C2.2345415 27.20854352 4.58778159 28.07522362 7.5625 30.4375 C10.2649425 34.49116375 10.08986817 37.68281551 9.5625 42.4375 C7.5313987 47.6280922 6.0093889 47.71405555 0.5625 50.4375 C-4.3875 50.7675 -9.3375 51.0975 -14.4375 51.4375 C-14.4375 61.6675 -14.4375 71.8975 -14.4375 82.4375 C-5.8575 82.4375 2.7225 82.4375 11.5625 82.4375 C11.5625 77.1575 11.5625 71.8775 11.5625 66.4375 C13.2640625 66.375625 13.2640625 66.375625 15 66.3125 C20.48073039 65.59339708 24.52178664 63.14725969 28.5625 59.4375 C35.31434195 50.16775024 35.75408523 39.54972508 34.5625 28.4375 C32.75197555 22.22462149 29.49368729 17.6290092 24.5625 13.4375 C23.86125 12.756875 23.16 12.07625 22.4375 11.375 C10.12073232 3.07456961 -7.32893667 2.56193002 -20.4375 9.4375 Z " fill="#323434" transform="translate(168.4375,32.5625)"/>
<path d="M0 0 C2.75 1.25 2.75 1.25 5 3 C5.763125 3.53625 6.52625 4.0725 7.3125 4.625 C9.88286335 8.24254841 9.66552908 11.70083516 9 16 C7.5 19.0625 7.5 19.0625 6 21 C11.58802516 24.00942398 16.72600212 25.85231059 22.875 27.3125 C34.98724063 30.5120762 41.49410388 35.61231332 48.37719727 45.94165039 C51.2361923 50.17814572 54.08973707 52.82718049 58.375 55.65234375 C61.35342553 58.12243223 62.15721513 61.33602848 63 65 C63.4021875 66.7325 63.4021875 66.7325 63.8125 68.5 C64.26295298 76.90845561 61.25826427 81.81534177 56 88 C54.7625 89.36125 54.7625 89.36125 53.5 90.75 C51.06611026 93.5817371 49.60762103 96.70372034 48 100.0625 C44.22784091 107.80787233 39.95502492 111.89741618 32 115 C9.67615928 122.34576789 -18.72031626 124.04075416 -40.5625 114.3125 C-47.65694236 110.4514496 -50.75355513 105.45984759 -54.3125 98.4375 C-56.23723 94.77612436 -58.26025095 92.82924407 -61.625 90.4375 C-66.11770394 87.20066005 -67.97670622 84.4321659 -69 79 C-70.66753582 66.85081043 -63.37076143 53.36051676 -56.32470703 43.87109375 C-55.88755371 43.29488281 -55.45040039 42.71867187 -55 42.125 C-54.58476074 41.57714844 -54.16952148 41.02929688 -53.74169922 40.46484375 C-49.10269659 34.55435673 -44.68020527 31.5282534 -37.51171875 29.421875 C-36.80852005 29.20557434 -36.10532135 28.98927368 -35.3808136 28.76641846 C-33.15276991 28.08370656 -30.92039153 27.41666419 -28.6875 26.75 C-27.16830573 26.28748866 -25.64942163 25.82395723 -24.13085938 25.359375 C-20.42405659 24.22775155 -16.71328809 23.11014848 -13 22 C-12.85806765 19.91018344 -12.85806765 19.91018344 -14 17.875 C-15.30198804 14.13178439 -15.93979029 10.86115389 -15 7 C-11.13750861 0.77774943 -7.11983092 -1.14835983 0 0 Z M-8.3125 6.5625 C-10.34668762 8.99422187 -10.34668762 8.99422187 -9.9375 12.5625 C-9.33340577 15.93702013 -9.33340577 15.93702013 -7.4375 17.5 C-6 19 -6 19 -5.8125 22.6875 C-5.9053125 24.3271875 -5.9053125 24.3271875 -6 26 C-6.680625 26.15855469 -7.36125 26.31710938 -8.0625 26.48046875 C-15.58297991 28.29058426 -22.9437683 30.44446342 -30.296875 32.83203125 C-32.41266411 33.49935292 -34.54369124 34.128066 -36.703125 34.63671875 C-46.2757747 36.99641037 -51.36226462 45.74391695 -56.375 53.625 C-61.54859629 62.45721517 -64.47430768 69.52085228 -63 80 C-61.28665276 83.59233531 -59.71049475 85.44557205 -56.3125 87.4375 C-51.68449505 90.67880494 -49.36905565 95.04402037 -46.87817383 99.97436523 C-43.41754899 106.67456784 -38.9611449 109.4475802 -32 112 C-11.4162375 117.73027821 15.71793792 117.92626864 35 108 C40.54170367 104.62678907 42.40907206 99.74848775 44.85546875 93.984375 C47.13279186 88.93249665 50.07095553 85.65338891 54.1953125 81.95703125 C57.97532844 77.85792305 58.39228861 73.56454647 58.25 68.2109375 C57.73348667 63.64302278 55.97674877 60.85152457 52.5625 57.875 C51.716875 57.25625 50.87125 56.6375 50 56 C46.06194434 52.35068162 43.22312452 48.16078245 40.1953125 43.75390625 C34.92576212 37.14352722 30.18124242 35.03294704 22.1875 32.9375 C16.13210225 31.3010299 10.47450701 29.48522379 4.8059082 26.77172852 C3.02079655 25.86901371 3.02079655 25.86901371 1 26 C0.25 22.8125 0.25 22.8125 0 19 C1.9375 16.375 1.9375 16.375 4 14 C4.83356413 11.45587964 4.83356413 11.45587964 4 9 C-0.03607163 5.60603068 -3.43604672 3.26759913 -8.3125 6.5625 Z " fill="#323535" transform="translate(70,36)"/>
<path d="M0 0 C2.13315397 0.02147307 4.26294249 0.00006698 6.39599609 -0.02539062 C16.60202137 -0.04675154 27.66440184 0.66436023 35.69677734 7.64648438 C43.50666979 16.61913996 44.28286197 28.19619892 43.63427734 39.52148438 C42.65276437 46.23503312 39.90655911 49.97670203 34.61474609 54.15039062 C22.35493658 62.63795106 -0.19922871 59.39281004 -14.11962891 57.14257812 C-15.19083984 56.93761719 -16.26205078 56.73265625 -17.36572266 56.52148438 C-18.42662109 56.32683594 -19.48751953 56.1321875 -20.58056641 55.93164062 C-25.01441817 54.94698761 -27.65306326 54.25196026 -30.86572266 50.95898438 C-35.92262695 39.37024537 -39.16249102 25.26281373 -34.67822266 13.02148438 C-32.68148033 8.0912564 -29.43331802 5.45916602 -24.61376953 3.2734375 C-16.350139 0.62545273 -8.59709102 -0.10260471 0 0 Z M-28.14306641 12.44335938 C-32.81755414 20.38849508 -31.04201236 33.3013948 -28.86572266 41.83398438 C-28.17940671 44.98756566 -28.17940671 44.98756566 -26.36572266 47.52148438 C-20.75179225 50.27920457 -15.02395483 51.33069887 -8.86572266 52.20898438 C-7.99641113 52.33490967 -7.12709961 52.46083496 -6.23144531 52.59057617 C7.10596065 54.39157714 23.29589983 56.08311637 34.63427734 47.52148438 C37.28191163 42.5176416 38.12698246 38.32712493 38.00927734 32.64648438 C38.00057617 31.94612061 37.991875 31.24575684 37.98291016 30.52416992 C37.76648211 22.86492318 36.36868229 15.94592149 30.63427734 10.52148438 C17.35452847 1.96793434 -16.7587557 0.13329153 -28.14306641 12.44335938 Z " fill="#323637" transform="translate(63.36572265625,78.478515625)"/>
<path d="M0 0 C4.81706073 2.3630864 7.6369136 5.18293927 10 10 C10.9021605 15.64610559 10.24179585 20.19319926 7 25 C2.34512434 29.20074145 -0.53267407 30.36023452 -6.68359375 30.28125 C-11.46068362 29.70123234 -14.20984494 26.87557723 -17.3125 23.4375 C-20.17183193 19.30735388 -20.4185961 15.93943398 -20 11 C-15.44339061 2.39307115 -9.47644869 -1.13461696 0 0 Z " fill="#34D4E7" transform="translate(171,124)"/>
<path d="M0 0 C4.36572685 0.39357137 7.20044975 1.89225729 10.5625 4.75 C11.96303506 7.55107012 11.7700504 9.93891681 11.8125 13.0625 C11.83828125 14.19300781 11.8640625 15.32351562 11.890625 16.48828125 C11.5310426 20.06270151 10.70272123 21.89810326 8.5625 24.75 C5.86207819 26.1002109 3.63798373 25.99311007 0.625 26.0625 C-0.96634766 26.11857422 -0.96634766 26.11857422 -2.58984375 26.17578125 C-5.4375 25.75 -5.4375 25.75 -7.25390625 23.91796875 C-9.9411914 18.99571376 -10.12326892 14.22808352 -9.4375 8.75 C-7.74598465 3.6094436 -5.68970032 0.28832941 0 0 Z " fill="#323333" transform="translate(83.4375,94.25)"/>
<path d="M0 0 C5.36317593 0.2446361 8.61409451 1.1247147 12.8515625 4.7265625 C14.25209756 7.52763262 14.0591129 9.91547931 14.1015625 13.0390625 C14.12734375 14.16957031 14.153125 15.30007812 14.1796875 16.46484375 C13.8201051 20.03926401 12.99178373 21.87466576 10.8515625 24.7265625 C8.15114069 26.0767734 5.92704623 25.96967257 2.9140625 26.0390625 C1.32271484 26.09513672 1.32271484 26.09513672 -0.30078125 26.15234375 C-3.1484375 25.7265625 -3.1484375 25.7265625 -5 24.16796875 C-6.58132014 20.8063188 -6.58223952 18.05693884 -6.5859375 14.3515625 C-6.60527344 13.06507812 -6.62460937 11.77859375 -6.64453125 10.453125 C-6.03099717 5.84437291 -4.75333983 1.60749311 0 0 Z " fill="#323333" transform="translate(46.1484375,94.2734375)"/>
<path d="M0 0 C5.75 0.75 5.75 0.75 8 3 C8.30078125 5.05859375 8.30078125 5.05859375 8.3125 7.4375 C8.32925781 8.21996094 8.34601563 9.00242187 8.36328125 9.80859375 C7.91449279 12.51580155 7.18548266 13.38131308 5 15 C1.9375 15.375 1.9375 15.375 -1 15 C-3.48386059 11.27420911 -3.3804212 9.41288598 -3 5 C-1.5 2.0625 -1.5 2.0625 0 0 Z " fill="#34CEDF" transform="translate(82,100)"/>
<path d="M0 0 C5.75 0.75 5.75 0.75 8 3 C8.30078125 5.05859375 8.30078125 5.05859375 8.3125 7.4375 C8.32925781 8.21996094 8.34601562 9.00242187 8.36328125 9.80859375 C7.91425834 12.51721579 7.19944837 13.39389119 5 15 C1.8125 15.1875 1.8125 15.1875 -1 15 C-2.23184766 12.53630468 -2.16732342 10.8105499 -2.1875 8.0625 C-2.20167969 7.18722656 -2.21585938 6.31195313 -2.23046875 5.41015625 C-2 3 -2 3 0 0 Z " fill="#34D1E3" transform="translate(47,100)"/>
</svg>
