<?xml version="1.0" encoding="UTF-8"?>
<svg version="1.1" xmlns="http://www.w3.org/2000/svg" width="118" height="200">
<path d="M0 0 C1.17175781 0.75990234 1.17175781 0.75990234 2.3671875 1.53515625 C2.94726562 1.99792969 3.52734375 2.46070313 4.125 2.9375 C4.125 3.5975 4.125 4.2575 4.125 4.9375 C4.723125 5.205625 5.32125 5.47375 5.9375 5.75 C8.12347854 6.93667406 9.53832594 8.03349113 11.125 9.9375 C11.125 10.5975 11.125 11.2575 11.125 11.9375 C11.785 11.9375 12.445 11.9375 13.125 11.9375 C23.38436946 26.77032332 27.13980197 42.81503014 24.375 60.6875 C23.52578717 64.92134525 22.16899028 68.44177359 20.02734375 72.18359375 C19.05332552 74.07681533 18.56762895 75.86125081 18.125 77.9375 C17.465 77.9375 16.805 77.9375 16.125 77.9375 C15.75375 79.01257813 15.75375 79.01257813 15.375 80.109375 C13.9889789 83.24524775 12.28712175 85.53254167 10.125 88.1875 C9.42375 89.05890625 8.7225 89.9303125 8 90.828125 C6.125 92.9375 6.125 92.9375 4.125 93.9375 C2.21965359 99.0427344 1.07587954 104.32193364 0.6875 109.75 C0.3244082 114.13867478 -1.15571658 116.51646603 -3.875 119.9375 C-3.05 120.576875 -2.225 121.21625 -1.375 121.875 C1.59148366 125.50894248 1.80117755 127.29978942 1.56640625 131.84375 C0.94059356 134.81220667 -0.45266385 136.19644589 -2.875 137.9375 C-2.215 138.618125 -1.555 139.29875 -0.875 140 C1.59266201 143.62437857 1.52349981 145.63370206 1.125 149.9375 C-0.03397264 153.41441793 -0.7390843 154.15765595 -3.875 155.9375 C-7.125 156.125 -7.125 156.125 -9.875 155.9375 C-9.875 156.5975 -9.875 157.2575 -9.875 157.9375 C-9.215 157.9375 -8.555 157.9375 -7.875 157.9375 C-5.58486347 161.3727048 -5.69657027 162.922831 -5.875 166.9375 C-6.535 166.9375 -7.195 166.9375 -7.875 166.9375 C-8.00068359 167.87335938 -8.00068359 167.87335938 -8.12890625 168.828125 C-8.875 170.9375 -8.875 170.9375 -10.65234375 171.921875 C-11.36519531 172.17453125 -12.07804687 172.4271875 -12.8125 172.6875 C-16.01173591 174.10287695 -16.01173591 174.10287695 -17.84765625 176.96875 C-18.47056609 179.42418372 -18.47056609 179.42418372 -18.875 182.9375 C-19.535 182.9375 -20.195 182.9375 -20.875 182.9375 C-20.875 183.5975 -20.875 184.2575 -20.875 184.9375 C-24.62770373 188.40153422 -28.79446487 189.71616648 -33.8125 190.25 C-38.81395608 189.73964734 -42.73319707 187.69870195 -46.875 184.9375 C-46.875 184.2775 -46.875 183.6175 -46.875 182.9375 C-47.535 182.9375 -48.195 182.9375 -48.875 182.9375 C-49.01035156 182.32261719 -49.14570312 181.70773438 -49.28515625 181.07421875 C-49.96326098 178.52828063 -50.67180899 176.28518978 -51.875 173.9375 C-55.29991859 172.05279559 -55.29991859 172.05279559 -58.875 170.9375 C-61.44320429 168.53498631 -61.82840441 167.39413682 -62.1875 163.875 C-61.875 160.9375 -61.875 160.9375 -59.875 157.9375 C-59.215 157.9375 -58.555 157.9375 -57.875 157.9375 C-57.875 157.2775 -57.875 156.6175 -57.875 155.9375 C-58.7825 155.999375 -59.69 156.06125 -60.625 156.125 C-64.20110265 155.91868639 -65.38048587 155.43201413 -67.875 152.9375 C-69.07690901 149.33177296 -69.20170315 146.7272565 -68.875 142.9375 C-66.875 140 -66.875 140 -64.875 137.9375 C-65.535 137.463125 -66.195 136.98875 -66.875 136.5 C-69.42204207 133.23660235 -69.49768792 131.16884687 -69.3515625 127.1171875 C-68.61796207 123.76186751 -66.36296991 122.17029351 -63.875 119.9375 C-63.91997842 117.66226911 -63.91997842 117.66226911 -64.875 115.9375 C-65.535 115.9375 -66.195 115.9375 -66.875 115.9375 C-66.99875 114.6071875 -66.99875 114.6071875 -67.125 113.25 C-68.95141221 101.33025717 -73.35171421 93.24020643 -80.875 83.9375 C-90.34302988 70.97358217 -94.10309338 58.07275768 -92.875 41.9375 C-91.19827697 31.2896968 -87.7148579 20.47568997 -80.875 11.9375 C-80.215 11.9375 -79.555 11.9375 -78.875 11.9375 C-78.875 10.9475 -78.875 9.9575 -78.875 8.9375 C-77.25763741 7.5447711 -75.5824998 6.21812485 -73.875 4.9375 C-73.25496094 4.298125 -72.63492188 3.65875 -71.99609375 3 C-66.17381728 -2.6614401 -58.65210961 -6.0342728 -50.875 -8.0625 C-50.11832031 -8.26746094 -49.36164062 -8.47242188 -48.58203125 -8.68359375 C-31.7469517 -12.66579038 -14.38610717 -9.46964294 0 0 Z " fill="#8EC9FE" transform="translate(92.875,10.0625)"/>
<path d="M0 0 C1.98 0.99 1.98 0.99 4 2 C4 2.66 4 3.32 4 4 C4.66 4 5.32 4 6 4 C6.10022461 4.57967529 6.20044922 5.15935059 6.30371094 5.7565918 C6.7703434 8.40322318 7.25992417 11.04511352 7.75 13.6875 C7.90726563 14.59951172 8.06453125 15.51152344 8.2265625 16.45117188 C9.22000857 21.70497321 10.24222022 24.99749086 14 29 C14 29.66 14 30.32 14 31 C11.03 32.485 11.03 32.485 8 34 C7.86463226 35.43489809 7.76782857 36.87347107 7.6875 38.3125 C7.62949219 39.11300781 7.57148438 39.91351563 7.51171875 40.73828125 C7.78607626 43.21180968 7.78607626 43.21180968 10.17672729 44.62007141 C13.30360791 46.14839418 15.20332839 46.36420651 18.66064453 46.34057617 C19.77174591 46.34034958 20.88284729 46.34012299 22.02761841 46.33988953 C23.21733246 46.32440567 24.40704651 46.30892181 25.6328125 46.29296875 C26.86160126 46.28872391 28.09039001 46.28447906 29.35641479 46.28010559 C33.27950034 46.26332855 37.20207021 46.22569632 41.125 46.1875 C43.77473212 46.17245022 46.42447234 46.15876233 49.07421875 46.14648438 C54.89859581 46.11698185 60.72270768 46.07434564 66.54690552 46.02018738 C68.36455459 46.0052293 70.18228938 46 72 46 C72 46.66 72 47.32 72 48 C72.495 48.556875 72.99 49.11375 73.5 49.6875 C75.57571474 52.88756022 75.27222532 55.25690191 75 59 C73.84102736 62.47691793 73.1359157 63.22015595 70 65 C66.75 65.1875 66.75 65.1875 64 65 C64 65.66 64 66.32 64 67 C64.66 67 65.32 67 66 67 C68.29013653 70.4352048 68.17842973 71.985331 68 76 C67.34 76 66.68 76 66 76 C65.87431641 76.93585938 65.87431641 76.93585938 65.74609375 77.890625 C65 80 65 80 63.22265625 80.984375 C62.50980469 81.23703125 61.79695313 81.4896875 61.0625 81.75 C57.86326409 83.16537695 57.86326409 83.16537695 56.02734375 86.03125 C55.40443391 88.48668372 55.40443391 88.48668372 55 92 C54.34 92 53.68 92 53 92 C53 92.66 53 93.32 53 94 C49.24729627 97.46403422 45.08053513 98.77866648 40.0625 99.3125 C35.06104392 98.80214734 31.14180293 96.76120195 27 94 C27 93.34 27 92.68 27 92 C26.34 92 25.68 92 25 92 C24.86464844 91.38511719 24.72929688 90.77023438 24.58984375 90.13671875 C23.91173902 87.59078063 23.20319101 85.34768978 22 83 C18.57508141 81.11529559 18.57508141 81.11529559 15 80 C12.43179571 77.59748631 12.04659559 76.45663682 11.6875 72.9375 C12 70 12 70 14 67 C14.66 67 15.32 67 16 67 C16 66.34 16 65.68 16 65 C15.0925 65.061875 14.185 65.12375 13.25 65.1875 C9.67389735 64.98118639 8.49451413 64.49451413 6 62 C4.79809099 58.39427296 4.67329685 55.7897565 5 52 C7 49.0625 7 49.0625 9 47 C8.34 46.525625 7.68 46.05125 7 45.5625 C4.45295793 42.29910235 4.37731208 40.23134687 4.5234375 36.1796875 C5.25703793 32.82436751 7.51203009 31.23279351 10 29 C9.95502158 26.72476911 9.95502158 26.72476911 9 25 C8.34 25 7.68 25 7 25 C6.9175 24.113125 6.835 23.22625 6.75 22.3125 C5.67095569 14.66535988 2.94749293 7.11099192 0 0 Z " fill="#B1B1B1" transform="translate(19,101)"/>
<path d="M0 0 C2.25 1 2.25 1 4.25 3 C4.25 4.32 4.25 5.64 4.25 7 C3.59 7 2.93 7 2.25 7 C2.023125 7.515625 1.79625 8.03125 1.5625 8.5625 C0.25 11 0.25 11 -2.1875 14.125 C-9.02335993 23.75882824 -8.28345226 35.32299417 -8.4375 46.625 C-8.47073187 48.31382762 -8.50522679 50.00263088 -8.54101562 51.69140625 C-8.62524363 55.794135 -8.69236563 59.89681503 -8.75 64 C-8.06945557 63.98332275 -7.38891113 63.96664551 -6.68774414 63.94946289 C-5.79176514 63.9364917 -4.89578613 63.92352051 -3.97265625 63.91015625 C-3.08586182 63.893479 -2.19906738 63.87680176 -1.28540039 63.85961914 C2.41888285 64.06471908 5.60061773 65.35061773 8.25 68 C8.48828125 69.92578125 8.48828125 69.92578125 8.5625 72.3125 C8.59988281 73.09238281 8.63726562 73.87226563 8.67578125 74.67578125 C8.08452915 77.90325834 6.77166386 78.94827964 4.25 81 C1.676651 81.50120544 1.676651 81.50120544 -1.26538086 81.50170898 C-2.37010239 81.51108994 -3.47482391 81.52047089 -4.61302185 81.53013611 C-6.39592369 81.51328514 -6.39592369 81.51328514 -8.21484375 81.49609375 C-9.44030411 81.49754898 -10.66576447 81.49900421 -11.92835999 81.50050354 C-14.51989112 81.49884356 -17.11143201 81.48727148 -19.70288086 81.46655273 C-23.66888358 81.43763574 -27.63354692 81.44593569 -31.59960938 81.45898438 C-34.117194 81.45274591 -36.63477439 81.44435414 -39.15234375 81.43359375 C-40.33892075 81.43652939 -41.52549774 81.43946503 -42.74803162 81.44248962 C-43.8559053 81.42980545 -44.96377899 81.41712128 -46.10522461 81.40405273 C-47.07689072 81.39864975 -48.04855682 81.39324677 -49.04966736 81.38768005 C-52.53649951 80.88708422 -55.24223921 79.50776079 -57.75 77 C-57.82179964 75.48071962 -57.83392007 73.95832518 -57.8125 72.4375 C-57.80347656 71.61121094 -57.79445313 70.78492188 -57.78515625 69.93359375 C-57.77355469 69.29550781 -57.76195313 68.65742188 -57.75 68 C-53.29221364 64.83001859 -50.50554721 63.74334265 -44.98828125 63.875 C-44.00512939 63.89304688 -43.02197754 63.91109375 -42.0090332 63.9296875 C-41.26355225 63.95289063 -40.51807129 63.97609375 -39.75 64 C-39.79443628 58.89480771 -39.86456161 53.79081908 -39.95751953 48.6862793 C-39.98557737 46.95330434 -40.00686675 45.22020503 -40.02099609 43.48706055 C-39.84973117 30.142264 -39.84973117 30.142264 -44.75 18 C-45.30042969 17.16726562 -45.85085937 16.33453125 -46.41796875 15.4765625 C-47.17013672 14.56003906 -47.17013672 14.56003906 -47.9375 13.625 C-49.85009615 11.27178043 -50.77129444 9.93611668 -51.75 7 C-52.41 7 -53.07 7 -53.75 7 C-52.875 2.125 -52.875 2.125 -51.75 1 C-48.33361532 0.63938162 -46.45205145 0.48894784 -43.625 2.546875 C-34.96052266 12.72763588 -30.56434031 22.2224219 -30.65234375 35.58203125 C-30.6537587 36.39621017 -30.65517365 37.2103891 -30.65663147 38.04924011 C-30.66220683 40.63703156 -30.67475476 43.22473492 -30.6875 45.8125 C-30.69251819 47.57226437 -30.69708054 49.33203011 -30.70117188 51.09179688 C-30.71216819 55.39456494 -30.72941579 59.69726756 -30.75 64 C-26.79 64 -22.83 64 -18.75 64 C-18.77094727 62.93676514 -18.79189453 61.87353027 -18.81347656 60.77807617 C-18.88658899 56.78423859 -18.932055 52.79045851 -18.96972656 48.79614258 C-18.98968148 47.07663991 -19.01685558 45.35720367 -19.05175781 43.63793945 C-19.24785521 33.72060171 -19.31589976 25.08029651 -14.75 16 C-14.25757813 14.99324219 -13.76515625 13.98648438 -13.2578125 12.94921875 C-5.34067358 0 -5.34067358 0 0 0 Z " fill="#CACBCC" transform="translate(83.75,67)"/>
<path d="M0 0 C0.86512207 -0.00191345 1.73024414 -0.0038269 2.62158203 -0.00579834 C4.44368787 -0.00715432 6.26580356 -0.00349905 8.08789062 0.00488281 C10.86610759 0.01559073 13.64367799 0.0049676 16.421875 -0.0078125 C18.19791808 -0.0064908 19.97396077 -0.00392819 21.75 0 C22.57516113 -0.00404846 23.40032227 -0.00809692 24.25048828 -0.01226807 C28.81147272 0.02454822 32.65181773 0.32999979 36.875 2.265625 C39.16513653 5.7008298 39.05342973 7.250956 38.875 11.265625 C38.215 11.265625 37.555 11.265625 36.875 11.265625 C36.79121094 11.88953125 36.70742187 12.5134375 36.62109375 13.15625 C35.875 15.265625 35.875 15.265625 34.09765625 16.25 C33.38480469 16.50265625 32.67195313 16.7553125 31.9375 17.015625 C28.73826409 18.43100195 28.73826409 18.43100195 26.90234375 21.296875 C26.27943391 23.75230872 26.27943391 23.75230872 25.875 27.265625 C25.215 27.265625 24.555 27.265625 23.875 27.265625 C23.875 27.925625 23.875 28.585625 23.875 29.265625 C20.12229627 32.72965922 15.95553513 34.04429148 10.9375 34.578125 C5.93604392 34.06777234 2.01680293 32.02682695 -2.125 29.265625 C-2.125 28.605625 -2.125 27.945625 -2.125 27.265625 C-2.785 27.265625 -3.445 27.265625 -4.125 27.265625 C-4.26035156 26.65074219 -4.39570312 26.03585938 -4.53515625 25.40234375 C-5.21326098 22.85640563 -5.92180899 20.61331478 -7.125 18.265625 C-10.54991859 16.38092059 -10.54991859 16.38092059 -14.125 15.265625 C-16.69320429 12.86311131 -17.07840441 11.72226182 -17.4375 8.203125 C-17.125 5.265625 -17.125 5.265625 -15.125 2.265625 C-10.12225405 -0.02730023 -5.38892895 -0.02643953 0 0 Z " fill="#CCCCCC" transform="translate(48.125,165.734375)"/>
<path d="M0 0 C2.25 1 2.25 1 4.25 3 C4.25 4.32 4.25 5.64 4.25 7 C3.59 7 2.93 7 2.25 7 C2.023125 7.515625 1.79625 8.03125 1.5625 8.5625 C0.25 11 0.25 11 -2.1875 14.125 C-9.02335993 23.75882824 -8.28345226 35.32299417 -8.4375 46.625 C-8.47073187 48.31382762 -8.50522679 50.00263088 -8.54101562 51.69140625 C-8.62524363 55.794135 -8.69236563 59.89681503 -8.75 64 C-12.05 64 -15.35 64 -18.75 64 C-18.84984488 58.93210414 -18.9219226 53.86479699 -18.96972656 48.79614258 C-18.98968148 47.07663991 -19.01685558 45.35720367 -19.05175781 43.63793945 C-19.24785521 33.72060171 -19.31589976 25.08029651 -14.75 16 C-14.25757812 14.99324219 -13.76515625 13.98648438 -13.2578125 12.94921875 C-5.34067358 0 -5.34067358 0 0 0 Z " fill="#CAE5FE" transform="translate(83.75,67)"/>
<path d="M0 0 C3.87350718 0.36076783 4.70575759 1.13082767 7.1875 4.046875 C15.01075666 13.53689076 18.36520318 22.72715806 18.28515625 34.87890625 C18.2837413 35.69308517 18.28232635 36.5072641 18.28086853 37.34611511 C18.27529317 39.93390656 18.26274524 42.52160992 18.25 45.109375 C18.24498181 46.86913937 18.24041946 48.62890511 18.23632812 50.38867188 C18.22533181 54.69143994 18.20808421 58.99414256 18.1875 63.296875 C15.2175 63.296875 12.2475 63.296875 9.1875 63.296875 C9.17348145 61.68631226 9.17348145 61.68631226 9.15917969 60.04321289 C9.1190161 56.02278622 9.0531871 52.00310375 8.97998047 47.9831543 C8.95192263 46.25017934 8.93063325 44.51708003 8.91650391 42.78393555 C9.08776883 29.439139 9.08776883 29.439139 4.1875 17.296875 C3.63707031 16.46414062 3.08664063 15.63140625 2.51953125 14.7734375 C2.01808594 14.16242188 1.51664063 13.55140625 1 12.921875 C-0.91259615 10.56865543 -1.83379444 9.23299168 -2.8125 6.296875 C-3.4725 6.296875 -4.1325 6.296875 -4.8125 6.296875 C-3.75340315 0.39619255 -3.75340315 0.39619255 0 0 Z " fill="#CDE6FE" transform="translate(34.8125,67.703125)"/>
<path d="M0 0 C0.66 0 1.32 0 2 0 C1.96519531 1.04800781 1.96519531 1.04800781 1.9296875 2.1171875 C1.91164062 3.02726563 1.89359375 3.93734375 1.875 4.875 C1.85179687 5.77992188 1.82859375 6.68484375 1.8046875 7.6171875 C1.75675164 10.18806994 1.75675164 10.18806994 4 12 C7.65954247 13.32825853 11.46516306 13.20827575 15.3203125 13.31640625 C16.37011795 13.3475779 16.37011795 13.3475779 17.44113159 13.37937927 C19.66899205 13.44453166 21.89696732 13.5035637 24.125 13.5625 C25.63152183 13.60572387 27.13803247 13.64933937 28.64453125 13.69335938 C35.59779012 13.89368678 42.10783473 14.02106152 49 13 C48.67 13.66 48.34 14.32 48 15 C47.195625 15.20625 46.39125 15.4125 45.5625 15.625 C42.88010829 16.71298924 42.88010829 16.71298924 42.2265625 18.90625 C41.73738737 20.91966649 41.36195829 22.95987145 41 25 C40.34 25 39.68 25 39 25 C39 25.66 39 26.32 39 27 C35.24729627 30.46403422 31.08053513 31.77866648 26.0625 32.3125 C21.06104392 31.80214734 17.14180293 29.76120195 13 27 C13 26.34 13 25.68 13 25 C12.34 25 11.68 25 11 25 C10.86464844 24.38511719 10.72929688 23.77023438 10.58984375 23.13671875 C9.91173902 20.59078063 9.20319101 18.34768978 8 16 C4.57508141 14.11529559 4.57508141 14.11529559 1 13 C-1.56820429 10.59748631 -1.95340441 9.45663682 -2.3125 5.9375 C-2 3 -2 3 0 0 Z " fill="#AFAFAF" transform="translate(33,168)"/>
<path d="M0 0 C1.98 0.99 1.98 0.99 4 2 C4 2.66 4 3.32 4 4 C4.66 4 5.32 4 6 4 C6.10022461 4.57967529 6.20044922 5.15935059 6.30371094 5.7565918 C6.7703434 8.40322318 7.25992417 11.04511352 7.75 13.6875 C7.90726563 14.59951172 8.06453125 15.51152344 8.2265625 16.45117188 C9.22000857 21.70497321 10.24222022 24.99749086 14 29 C14 29.66 14 30.32 14 31 C11.03 32.485 11.03 32.485 8 34 C7.47198236 40.36077959 7.47198236 40.36077959 10 46.0625 C10.99 47.0215625 10.99 47.0215625 12 48 C11.34 48.309375 10.68 48.61875 10 48.9375 C7.55823502 51.45557014 7.72857594 52.28107372 7.75 55.6875 C7.81423833 57.1259798 7.89163547 58.56416999 8 60 C9.32 60.66 10.64 61.32 12 62 C12 62.99 12 63.98 12 65 C10 64 8 63 6 62 C4.79809099 58.39427296 4.67329685 55.7897565 5 52 C7 49.0625 7 49.0625 9 47 C8.34 46.525625 7.68 46.05125 7 45.5625 C4.45295793 42.29910235 4.37731208 40.23134687 4.5234375 36.1796875 C5.25703793 32.82436751 7.51203009 31.23279351 10 29 C9.95502158 26.72476911 9.95502158 26.72476911 9 25 C8.34 25 7.68 25 7 25 C6.9175 24.113125 6.835 23.22625 6.75 22.3125 C5.67095569 14.66535988 2.94749293 7.11099192 0 0 Z " fill="#696969" transform="translate(19,101)"/>
<path d="M0 0 C0.33 0.99 0.66 1.98 1 3 C0.02894567 4.67423161 -0.9464978 6.34615248 -1.94946289 8.00146484 C-5.36044122 14.49048846 -5.32842448 22.090965 -5.25 29.25 C-5.23658569 30.63143188 -5.23658569 30.63143188 -5.22290039 32.04077148 C-5.02266891 43.86895312 -4.02098781 52.56343528 2.63671875 62.63671875 C3.08660156 63.41660156 3.53648438 64.19648437 4 65 C3.505 65.99 3.505 65.99 3 67 C-6.90987187 53.02708066 -11.18177345 38.85505769 -8.46484375 21.6015625 C-6.8003555 13.79756841 -4.44075865 6.66113798 0 0 Z " fill="#447FB4" transform="translate(9,27)"/>
<path d="M0 0 C0.66 0.33 1.32 0.66 2 1 C1.79503906 1.68964844 1.59007813 2.37929687 1.37890625 3.08984375 C0.0621449 7.68275774 -1.11136084 12.03456124 -1.4375 16.8125 C-1.8005918 21.20117478 -3.28071658 23.57896603 -6 27 C-5.175 27.639375 -4.35 28.27875 -3.5 28.9375 C-0.49301192 32.6210604 -0.46970511 34.43431787 -0.53125 39.01171875 C-1 41 -1 41 -4 43 C-3.94199219 42.24074219 -3.88398437 41.48148438 -3.82421875 40.69921875 C-3.68939597 37.72926554 -3.62993041 34.95184921 -4 32 C-6.30317533 29.69512279 -6.30317533 29.69512279 -9 29 C-8.33333333 26.33333333 -7.66666667 23.66666667 -7 21 C-6.34 21 -5.68 21 -5 21 C-5.05800781 20.40574219 -5.11601563 19.81148437 -5.17578125 19.19921875 C-5.58192922 11.73770038 -3.47554633 6.52906203 0 0 Z " fill="#5D87AD" transform="translate(95,103)"/>
<path d="M0 0 C0.66 0.33 1.32 0.66 2 1 C6.12973606 14.27956411 7.20452826 29.91621779 0.875 42.6875 C0.25625 43.780625 -0.3625 44.87375 -1 46 C-2.1093252 42.71571674 -1.8907616 41.06845128 -0.578125 37.89453125 C1.27156508 32.74257557 1.38150417 28.11653012 1.25 22.6875 C1.23356445 21.31525269 1.23356445 21.31525269 1.21679688 19.9152832 C1.1082285 13.24717857 0.76840659 6.62750686 0 0 Z " fill="#4581B7" transform="translate(113,38)"/>
<path d="M0 0 C0 0.99 0 1.98 0 3 C-2.5 4.5 -2.5 4.5 -5 6 C-5 6.99 -5 7.98 -5 9 C-6.57421875 10.97265625 -6.57421875 10.97265625 -8.6875 13.0625 C-9.37199219 13.75472656 -10.05648438 14.44695313 -10.76171875 15.16015625 C-13.10926314 17.08981316 -15.14563063 18.01067463 -18 19 C-18.66 19.33 -19.32 19.66 -20 20 C-19.34 18.35 -18.68 16.7 -18 15 C-17.34 15 -16.68 15 -16 15 C-16 14.01 -16 13.02 -16 12 C-14.38263741 10.6072711 -12.7074998 9.28062485 -11 8 C-10.071875 7.01 -10.071875 7.01 -9.125 6 C-6.3340826 3.37325421 -3.37234254 1.81587675 0 0 Z " fill="#8DC9FD" transform="translate(30,7)"/>
<path d="M0 0 C1.98 0.99 1.98 0.99 4 2 C4 2.66 4 3.32 4 4 C4.66 4 5.32 4 6 4 C6.10022461 4.57967529 6.20044922 5.15935059 6.30371094 5.7565918 C6.7703434 8.40322318 7.25992417 11.04511352 7.75 13.6875 C7.90726563 14.59951172 8.06453125 15.51152344 8.2265625 16.45117188 C9.22000857 21.70497321 10.24222022 24.99749086 14 29 C14 29.66 14 30.32 14 31 C13.34 31 12.68 31 12 31 C12 30.34 12 29.68 12 29 C11.01 28.67 10.02 28.34 9 28 C9 27.01 9 26.02 9 25 C8.34 25 7.68 25 7 25 C6.9175 24.113125 6.835 23.22625 6.75 22.3125 C5.67095569 14.66535988 2.94749293 7.11099192 0 0 Z " fill="#417DB2" transform="translate(19,101)"/>
<path d="M0 0 C2.5 1.375 2.5 1.375 5 3 C5 3.66 5 4.32 5 5 C5.598125 5.268125 6.19625 5.53625 6.8125 5.8125 C8.99847854 6.99917406 10.41332594 8.09599113 12 10 C12 10.66 12 11.32 12 12 C12.66 12 13.32 12 14 12 C15.69140625 14.51953125 15.69140625 14.51953125 17.5625 17.8125 C18.18253906 18.89144531 18.80257812 19.97039063 19.44140625 21.08203125 C21 24 21 24 22 27 C21.01 26.67 20.02 26.34 19 26 C18.505 23.525 18.505 23.525 18 21 C17.34 21 16.68 21 16 21 C15.42958984 19.69482422 15.42958984 19.69482422 14.84765625 18.36328125 C12.84025288 14.70921297 10.41503003 12.03982508 7.4375 9.1875 C6.6959668 8.45370117 6.6959668 8.45370117 5.93945312 7.70507812 C3.2155632 5.02226331 3.2155632 5.02226331 0 3 C0 2.01 0 1.02 0 0 Z " fill="#4181BA" transform="translate(92,10)"/>
<path d="M0 0 C0.66 0.33 1.32 0.66 2 1 C2 1.66 2 2.32 2 3 C2.495 3.556875 2.99 4.11375 3.5 4.6875 C5.57571474 7.88756022 5.27222532 10.25690191 5 14 C3.86280581 17.41158256 2.95657056 18.11854601 0 20 C-0.66 20 -1.32 20 -2 20 C-2 19.01 -2 18.02 -2 17 C-0.68 16.34 0.64 15.68 2 15 C2.62314211 8.80136385 2.62314211 8.80136385 0 3.4375 C-0.66 2.963125 -1.32 2.48875 -2 2 C-1.34 1.34 -0.68 0.68 0 0 Z " fill="#7C7C7C" transform="translate(89,146)"/>
<path d="M0 0 C0.99 0.33 1.98 0.66 3 1 C3.06316406 1.58265625 3.12632813 2.1653125 3.19140625 2.765625 C4.22700143 9.69866219 6.86076717 14.6592291 10.63671875 20.53125 C11.08660156 21.3459375 11.53648438 22.160625 12 23 C11.67 23.66 11.34 24.32 11 25 C5.4413179 17.16225823 0.82777243 9.72632608 0 0 Z " fill="#3A72A4" transform="translate(1,69)"/>
<path d="M0 0 C0.66 0 1.32 0 2 0 C1.95359375 0.68707031 1.9071875 1.37414062 1.859375 2.08203125 C1.82328125 2.98308594 1.7871875 3.88414062 1.75 4.8125 C1.70359375 5.70582031 1.6571875 6.59914062 1.609375 7.51953125 C1.74837646 10.16428786 1.74837646 10.16428786 4.015625 11.69921875 C4.67046875 12.12847656 5.3253125 12.55773437 6 13 C6 13.66 6 14.32 6 15 C2.12812449 13.74425659 -0.06837517 12.65992073 -2 9 C-2.41865457 4.89718519 -2.32579101 3.48868651 0 0 Z " fill="#949494" transform="translate(33,168)"/>
<path d="M0 0 C0.99 0.66 1.98 1.32 3 2 C2.01 2 1.02 2 0 2 C0 2.66 0 3.32 0 4 C-0.66 4 -1.32 4 -2 4 C-1.54177532 7.46941546 -1.10868317 10.67395049 0 14 C-1.32 13.34 -2.64 12.68 -4 12 C-4.22893297 8.96663814 -4.36475845 6.02534949 -4 3 C-2 0.9375 -2 0.9375 0 0 Z " fill="#D4D4D4" transform="translate(30,132)"/>
<path d="M0 0 C5.48436902 0.80652486 10.33112512 2.71964598 14 7 C11.36 7 8.72 7 6 7 C6 6.01 6 5.02 6 4 C4.02 3.34 2.04 2.68 0 2 C0 1.34 0 0.68 0 0 Z " fill="#5090CA" transform="translate(77,3)"/>
<path d="M0 0 C0.66 0.33 1.32 0.66 2 1 C1.34 1.66 0.68 2.32 0 3 C-0.31537716 7.33643601 -0.44897847 9.32653229 2 13 C-1.875 12.125 -1.875 12.125 -3 11 C-3.203125 9.00390625 -3.203125 9.00390625 -3.25 6.5625 C-3.27578125 5.75941406 -3.3015625 4.95632812 -3.328125 4.12890625 C-3.21984375 3.42636719 -3.1115625 2.72382813 -3 2 C-2.01 1.34 -1.02 0.68 0 0 Z " fill="#B9B9B9" transform="translate(29,150)"/>
<path d="M0 0 C2.475 0.99 2.475 0.99 5 2 C5.05399736 3.45792884 5.09279177 4.91642712 5.125 6.375 C5.14820312 7.18710938 5.17140625 7.99921875 5.1953125 8.8359375 C5 11 5 11 3 13 C2.01 12.67 1.02 12.34 0 12 C0.66 11.34 1.32 10.68 2 10 C2.31537716 5.66356399 2.44897847 3.67346771 0 0 Z " fill="#B9B9B9" transform="translate(87,150)"/>
<path d="M0 0 C-5.5409866 2.52958084 -11.14340094 4.33846988 -17 6 C-16.67 5.01 -16.34 4.02 -16 3 C-14.109375 2.0859375 -14.109375 2.0859375 -11.75 1.375 C-10.93917969 1.13007812 -10.12835938 0.88515625 -9.29296875 0.6328125 C-2.4895719 -1.24478595 -2.4895719 -1.24478595 0 0 Z " fill="#4789C4" transform="translate(49,2)"/>
<path d="M0 0 C0 0.66 0 1.32 0 2 C-3.89092405 5.5916222 -8.1394805 6.93109187 -13.375 7.125 C-14.24125 7.08375 -15.1075 7.0425 -16 7 C-16 6.34 -16 5.68 -16 5 C-14.98679688 4.83564453 -14.98679688 4.83564453 -13.953125 4.66796875 C-12.61507812 4.43013672 -12.61507812 4.43013672 -11.25 4.1875 C-10.36828125 4.03667969 -9.4865625 3.88585937 -8.578125 3.73046875 C-5.32666201 2.8092209 -3.28483237 0 0 0 Z " fill="#7A7A7A" transform="translate(72,193)"/>
<path d="M0 0 C-0.33 0.66 -0.66 1.32 -1 2 C-2.2065625 2.309375 -2.2065625 2.309375 -3.4375 2.625 C-6.11989171 3.71298924 -6.11989171 3.71298924 -6.7734375 5.90625 C-7.26261263 7.91966649 -7.63804171 9.95987145 -8 12 C-8.66 12 -9.32 12 -10 12 C-9.74476126 10.37247769 -9.47025506 8.74796804 -9.1875 7.125 C-9.03667969 6.22007812 -8.88585937 5.31515625 -8.73046875 4.3828125 C-7.31913354 -0.22100824 -4.22860181 -0.22857307 0 0 Z " fill="#8A8A8A" transform="translate(82,181)"/>
<path d="M0 0 C1.48828125 1.30078125 1.48828125 1.30078125 3 3 C3.1875 6.1875 3.1875 6.1875 3 9 C2.34 9 1.68 9 1 9 C0.67 10.32 0.34 11.64 0 13 C-1.06671952 9.79984144 -0.94845472 8.11455706 -0.5625 4.8125 C-0.46066406 3.91144531 -0.35882813 3.01039063 -0.25390625 2.08203125 C-0.17011719 1.39496094 -0.08632812 0.70789063 0 0 Z " fill="#929292" transform="translate(84,168)"/>
<path d="M0 0 C0.66 0 1.32 0 2 0 C2.0825 1.11375 2.165 2.2275 2.25 3.375 C2.57873787 7.05753944 2.57873787 7.05753944 5.0625 8.4375 C5.701875 8.623125 6.34125 8.80875 7 9 C7 9.99 7 10.98 7 12 C5 11 3 10 1 9 C0.5859375 6.93359375 0.5859375 6.93359375 0.375 4.4375 C0.30023437 3.61121094 0.22546875 2.78492188 0.1484375 1.93359375 C0.09945313 1.29550781 0.05046875 0.65742188 0 0 Z " fill="#8C8C8C" transform="translate(24,154)"/>
<path d="M0 0 C0 4.09939665 -1.52298101 5.78656995 -4 9 C-6.75 10.875 -6.75 10.875 -9 12 C-8.34 10.35 -7.68 8.7 -7 7 C-6.34 7 -5.68 7 -5 7 C-5 6.01 -5 5.02 -5 4 C-2.5 1.8125 -2.5 1.8125 0 0 Z " fill="#4788C2" transform="translate(19,15)"/>
<path d="M0 0 C0.99 0.33 1.98 0.66 3 1 C2.0409375 1.495 2.0409375 1.495 1.0625 2 C-2.0552764 5.02329832 -1.72043064 7.73656724 -2 12 C-4 10 -4 10 -4.375 7.125 C-3.92491816 3.37431801 -2.87398748 2.33511483 0 0 Z " fill="#939494" transform="translate(28,131)"/>
<path d="M0 0 C0 0.99 0 1.98 0 3 C-1.4609375 4.38671875 -1.4609375 4.38671875 -3.375 5.6875 C-4.00148438 6.12449219 -4.62796875 6.56148437 -5.2734375 7.01171875 C-7 8 -7 8 -9 8 C-7.50164772 3.33845958 -4.11536409 2.13389249 0 0 Z " fill="#4B90CF" transform="translate(30,7)"/>
<path d="M0 0 C0.99 0.495 0.99 0.495 2 1 C2.33333333 3.33333333 2.66666667 5.66666667 3 8 C3.66 8.33 4.32 8.66 5 9 C3.0625 8.625 3.0625 8.625 1 8 C-0.35439668 5.29120665 -0.06501451 2.99066732 0 0 Z " fill="#98D0FE" transform="translate(28,119)"/>
<path d="M0 0 C0.99 1.485 0.99 1.485 2 3 C3.051875 4.2684375 3.051875 4.2684375 4.125 5.5625 C6 8 6 8 6 10 C5.34 10 4.68 10 4 10 C4 9.34 4 8.68 4 8 C3.01 7.67 2.02 7.34 1 7 C0.67 4.69 0.34 2.38 0 0 Z " fill="#5289BB" transform="translate(27,122)"/>
<path d="M0 0 C1.875 0.5 1.875 0.5 4 2 C4.98494554 4.65177645 5.45912382 7.20547307 6 10 C2.51668565 6.98112756 1.20842856 4.43090471 0 0 Z " fill="#5FA0DA" transform="translate(11,89)"/>
</svg>
