<?xml version="1.0" encoding="UTF-8"?>
<svg version="1.1" xmlns="http://www.w3.org/2000/svg" width="360" height="360">
<path d="M0 0 C1.23500748 0.00406357 1.23500748 0.00406357 2.4949646 0.00820923 C16.09031843 0.075735 29.0809743 1.12756356 42.3125 4.4375 C43.05580566 4.61410156 43.79911133 4.79070313 44.56494141 4.97265625 C73.39166634 11.96723341 98.92523689 27.15592997 120.3125 47.4375 C121.087146 48.15534668 121.087146 48.15534668 121.87744141 48.88769531 C152.01552357 76.94152727 172.96094347 118.28311879 174.51806641 159.82885742 C174.62005442 163.7995714 174.63888932 167.76835823 174.62817383 171.74023438 C174.62502136 174.17103335 174.64854977 176.6006008 174.67382812 179.03125 C174.71853578 190.11524936 173.49217974 200.5778663 171.3125 211.4375 C171.03829224 212.82582031 171.03829224 212.82582031 170.75854492 214.2421875 C164.26913713 244.79607094 148.67014425 271.95402644 127.3125 294.4375 C126.8179834 294.96456543 126.3234668 295.49163086 125.81396484 296.03466797 C97.48694599 326.05771033 56.65673205 347.07882791 14.92114258 348.64306641 C10.9504286 348.74505442 6.98164177 348.76388932 3.00976562 348.75317383 C0.57896665 348.75002136 -1.8506008 348.77354977 -4.28125 348.79882812 C-15.36524936 348.84353578 -25.8278663 347.61717974 -36.6875 345.4375 C-38.07582031 345.16329224 -38.07582031 345.16329224 -39.4921875 344.88354492 C-69.84378584 338.43710092 -97.32371788 322.69609521 -119.6875 301.4375 C-120.48027344 300.6935498 -120.48027344 300.6935498 -121.2890625 299.93457031 C-151.31040399 271.60964024 -172.32895123 230.77844189 -173.89306641 189.04614258 C-173.99505442 185.0754286 -174.01388932 181.10664177 -174.00317383 177.13476562 C-174.00002136 174.70396665 -174.02354977 172.2743992 -174.04882812 169.84375 C-174.09353578 158.75975064 -172.86717974 148.2971337 -170.6875 137.4375 C-170.50469482 136.51195312 -170.32188965 135.58640625 -170.13354492 134.6328125 C-163.64029552 104.06084172 -148.03330374 76.94701578 -126.6875 54.4375 C-126.20893555 53.92106934 -125.73037109 53.40463867 -125.23730469 52.87255859 C-101.80637945 27.70084048 -70.49807247 10.10433202 -36.6875 3.4375 C-35.39448975 3.18073486 -34.10147949 2.92396973 -32.76928711 2.65942383 C-21.79747727 0.5951347 -11.14988677 -0.0868219 0 0 Z " fill="#B38459" transform="translate(180.6875,5.5625)"/>
<path d="M0 0 C1.23500748 0.00406357 1.23500748 0.00406357 2.4949646 0.00820923 C16.09031843 0.075735 29.0809743 1.12756356 42.3125 4.4375 C43.05580566 4.61410156 43.79911133 4.79070313 44.56494141 4.97265625 C73.39166634 11.96723341 98.92523689 27.15592997 120.3125 47.4375 C121.087146 48.15534668 121.087146 48.15534668 121.87744141 48.88769531 C152.01552357 76.94152727 172.96094347 118.28311879 174.51806641 159.82885742 C174.62005442 163.7995714 174.63888932 167.76835823 174.62817383 171.74023438 C174.62502136 174.17103335 174.64854977 176.6006008 174.67382812 179.03125 C174.71853578 190.11524936 173.49217974 200.5778663 171.3125 211.4375 C171.03829224 212.82582031 171.03829224 212.82582031 170.75854492 214.2421875 C164.26913713 244.79607094 148.67014425 271.95402644 127.3125 294.4375 C126.8179834 294.96456543 126.3234668 295.49163086 125.81396484 296.03466797 C97.48694599 326.05771033 56.65673205 347.07882791 14.92114258 348.64306641 C10.9504286 348.74505442 6.98164177 348.76388932 3.00976562 348.75317383 C0.57896665 348.75002136 -1.8506008 348.77354977 -4.28125 348.79882812 C-15.36524936 348.84353578 -25.8278663 347.61717974 -36.6875 345.4375 C-38.07582031 345.16329224 -38.07582031 345.16329224 -39.4921875 344.88354492 C-69.84378584 338.43710092 -97.32371788 322.69609521 -119.6875 301.4375 C-120.48027344 300.6935498 -120.48027344 300.6935498 -121.2890625 299.93457031 C-151.31040399 271.60964024 -172.32895123 230.77844189 -173.89306641 189.04614258 C-173.99505442 185.0754286 -174.01388932 181.10664177 -174.00317383 177.13476562 C-174.00002136 174.70396665 -174.02354977 172.2743992 -174.04882812 169.84375 C-174.09353578 158.75975064 -172.86717974 148.2971337 -170.6875 137.4375 C-170.50469482 136.51195312 -170.32188965 135.58640625 -170.13354492 134.6328125 C-163.64029552 104.06084172 -148.03330374 76.94701578 -126.6875 54.4375 C-126.20893555 53.92106934 -125.73037109 53.40463867 -125.23730469 52.87255859 C-101.80637945 27.70084048 -70.49807247 10.10433202 -36.6875 3.4375 C-35.39448975 3.18073486 -34.10147949 2.92396973 -32.76928711 2.65942383 C-21.79747727 0.5951347 -11.14988677 -0.0868219 0 0 Z M-120.8671875 63.28125 C-152.47900162 97.113924 -165.00224157 140.49200353 -163.83544922 185.92724609 C-162.92847525 207.4461764 -156.11197043 228.22573063 -146.6875 247.4375 C-146.37586914 248.08912109 -146.06423828 248.74074219 -145.74316406 249.41210938 C-138.71017949 264.01392497 -128.8786352 276.76063845 -117.6875 288.4375 C-116.883125 289.30503906 -116.07875 290.17257812 -115.25 291.06640625 C-93.22911071 314.10314014 -63.71694663 329.00797502 -32.6875 335.4375 C-31.72287842 335.65962158 -31.72287842 335.65962158 -30.73876953 335.88623047 C4.08164773 343.84395929 41.75318989 337.51638998 73.3125 321.4375 C74.48683594 320.86644531 75.66117188 320.29539062 76.87109375 319.70703125 C90.8319056 312.75498236 103.07530726 303.20725544 114.3125 292.4375 C115.18003906 291.633125 116.04757812 290.82875 116.94140625 290 C128.77094999 278.69210043 137.82748236 265.59636867 145.41210938 251.14892578 C146.17838877 249.69241317 146.96945151 248.24898289 147.765625 246.80859375 C151.89923096 239.07770413 154.58772016 230.74399718 157.3125 222.4375 C157.69664062 221.26960937 158.08078125 220.10171875 158.4765625 218.8984375 C166.59399211 192.43933487 166.69664438 164.26800678 160.3125 137.4375 C160.02066377 136.11071437 159.72898475 134.78389414 159.4375 133.45703125 C152.71450988 105.45457686 137.96636597 81.21633473 118.3125 60.4375 C117.50554687 59.56609375 116.69859375 58.6946875 115.8671875 57.796875 C104.11380903 45.51722586 90.40517998 36.14576245 75.3125 28.4375 C74.36310547 27.95240967 74.36310547 27.95240967 73.39453125 27.45751953 C61.64349678 21.54263027 49.47214887 17.32103525 36.6875 14.25 C36.04377441 14.0950708 35.40004883 13.9401416 34.73681641 13.78051758 C23.89156445 11.30318261 13.24839552 10.0929188 2.125 10.1875 C0.94808594 10.19499268 -0.22882813 10.20248535 -1.44140625 10.21020508 C-47.4509558 10.77336901 -89.08949691 30.25253003 -120.8671875 63.28125 Z " fill="#E7CCB3" transform="translate(180.6875,5.5625)"/>
<path d="M0 0 C5.61 0 11.22 0 17 0 C17.67076489 2.76989964 18.33676317 5.54079742 19 8.3125 C19.28617188 9.49102539 19.28617188 9.49102539 19.578125 10.69335938 C19.84882813 11.8293457 19.84882813 11.8293457 20.125 12.98828125 C20.29257813 13.68477783 20.46015625 14.38127441 20.6328125 15.09887695 C21 17 21 17 21 20 C21.66 20 22.32 20 23 20 C23 21.32 23 22.64 23 24 C24.96756452 23.96877057 24.96756452 23.96877057 27 23 C28.3045656 20.00384054 28.3045656 20.00384054 29 17 C29.66 17 30.32 17 31 17 C31.103125 15.865625 31.20625 14.73125 31.3125 13.5625 C31.89474686 8.77608829 33.37246582 4.52879076 35 0 C39.29 0 43.58 0 48 0 C48.31453125 1.03898438 48.6290625 2.07796875 48.953125 3.1484375 C51.32576181 10.90767658 53.78860758 18.53665226 57 26 C59.77082834 23.22917166 59.53096421 20.81929143 60 17 C60.495 15.515 60.495 15.515 61 14 C61.66 14 62.32 14 63 14 C63.13277344 13.15695313 63.26554687 12.31390625 63.40234375 11.4453125 C63.57894531 10.34960938 63.75554687 9.25390625 63.9375 8.125 C64.11152344 7.03445312 64.28554688 5.94390625 64.46484375 4.8203125 C65 2 65 2 66 0 C71.28 0 76.56 0 82 0 C79.74803519 12.01047899 76.77344099 23.77088435 73.078125 35.4140625 C71.4549722 40.81280985 70.05897858 46.26858095 68.66235352 51.72973633 C68.46053467 52.51372803 68.25871582 53.29771973 68.05078125 54.10546875 C67.87200439 54.80824951 67.69322754 55.51103027 67.5090332 56.23510742 C67 58 67 58 66 60 C60.72 60 55.44 60 50 60 C49.401875 58.040625 48.80375 56.08125 48.1875 54.0625 C46.5329393 48.68076164 44.80749624 43.3321139 43 38 C42.38125 38.495 41.7625 38.99 41.125 39.5 C39 41 39 41 37 41 C36.89042969 41.61746094 36.78085938 42.23492187 36.66796875 42.87109375 C35.55888288 48.79523532 34.01545527 54.32008061 32 60 C27.05 60 22.1 60 17 60 C14.87098999 54.89037598 13.37069182 49.74843305 12.0625 44.375 C9.79770625 35.07968539 7.1851811 25.90616937 4.4140625 16.75 C4.13933105 15.84088867 3.86459961 14.93177734 3.58154297 13.99511719 C3.0340115 12.18758817 2.48362815 10.38092019 1.93017578 8.57519531 C1.67993652 7.75116211 1.42969727 6.92712891 1.171875 6.078125 C0.9459668 5.33981445 0.72005859 4.60150391 0.48730469 3.84082031 C0 2 0 2 0 0 Z " fill="#FEFDFD" transform="translate(195,150)"/>
<path d="M0 0 C16 0 16 0 20.1875 3.875 C21.48443263 5.90018787 22.75056719 7.94516721 24 10 C25.63338984 12.30343122 27.30661577 14.57488007 28.98168945 16.84814453 C40.49585821 32.48757464 40.49585821 32.48757464 42 37 C42.33 24.79 42.66 12.58 43 0 C48.28 0 53.56 0 59 0 C59 19.8 59 39.6 59 60 C53.39 60 47.78 60 42 60 C36.15874298 53.46335524 36.15874298 53.46335524 34.484375 50.296875 C31.71799574 45.35988096 28.371323 40.91104582 25 36.375 C23.89143974 34.86519531 22.7869957 33.35235607 21.6875 31.8359375 C21.21699219 31.19188965 20.74648437 30.5478418 20.26171875 29.88427734 C19 28 19 28 17 24 C16.67 35.88 16.34 47.76 16 60 C10.72 60 5.44 60 0 60 C0 40.2 0 20.4 0 0 Z " fill="#FEFDFC" transform="translate(83,150)"/>
<path d="M0 0 C3.52837789 1.94841399 5.13463376 3.02927212 6.64453125 6.84375 C6.40972016 10.60072746 6.02335039 12.05099093 3.45703125 14.84375 C-4.63835626 19.5238959 -14.15816088 17.92418506 -22.83984375 15.8203125 C-38.84837838 12.17635299 -57.29199252 14.7249577 -72.34765625 21.015625 C-76.13169458 22.44305583 -79.69260874 21.8472222 -83.54296875 20.84375 C-86.34704927 18.65306209 -86.79309893 16.285648 -87.41796875 12.90625 C-87.6659311 10.06259672 -87.53763386 8.82994205 -86.48046875 6.09375 C-77.77730854 -4.01314573 -63.85567415 -5.18900102 -51.46899414 -6.83081055 C-34.30027182 -9.73180013 -16.06217049 -7.30322959 0 0 Z " fill="#FEFEFD" transform="translate(207.54296875,33.15625)"/>
<path d="M0 0 C12.21 0 24.42 0 37 0 C37 4.62 37 9.24 37 14 C28.57285181 16.0124533 28.57285181 16.0124533 25.125 15.9375 C22.94086583 15.81141143 22.94086583 15.81141143 21.25 17.1875 C19.58948587 19.33976583 19.58948587 19.33976583 19 24 C24.61 24 30.22 24 36 24 C36 28.29 36 32.58 36 37 C29.4 37 22.8 37 16 37 C16 39.97 16 42.94 16 46 C22.93 46 29.86 46 37 46 C37 50.62 37 55.24 37 60 C24.79 60 12.58 60 0 60 C0 40.2 0 20.4 0 0 Z " fill="#FEFDFD" transform="translate(154,150)"/>
<path d="M0 0 C0.99 0.66 1.98 1.32 3 2 C3 2.66 3 3.32 3 4 C3.99 4.33 4.98 4.66 6 5 C7.52320084 12.24416082 8.29927265 19.12656276 8.265625 26.5234375 C8.26753845 27.47264069 8.2694519 28.42184387 8.27142334 29.39981079 C8.27277229 31.38454456 8.26916711 33.36928756 8.26074219 35.35400391 C8.24995183 38.38854617 8.26071823 41.42250617 8.2734375 44.45703125 C8.27211708 46.39583463 8.26955711 48.33463766 8.265625 50.2734375 C8.26967346 51.17556976 8.27372192 52.07770203 8.27789307 53.00717163 C8.24477512 57.44629875 8.09633056 60.96659339 6 65 C5.67 65 5.34 65 5 65 C5 45.53 5 26.06 5 6 C-0.28 6 -5.56 6 -11 6 C-11 18.54 -11 31.08 -11 44 C-13 43 -13 43 -14.5 39.75 C-16.72596011 35.11670526 -19.75963169 31.24011447 -22.92358398 27.22851562 C-26.72917425 22.39557663 -30.31777284 17.43136378 -33.86376953 12.40576172 C-35.78106502 9.58014027 -35.78106502 9.58014027 -38 7 C-43.28 6.67 -48.56 6.34 -54 6 C-54 25.8 -54 45.6 -54 66 C-48.72 66 -43.44 66 -38 66 C-38 53.79 -38 41.58 -38 29 C-35.25503944 31.74496056 -33.34667516 34.29632902 -31.1875 37.5 C-26.50551231 44.39609978 -21.54130597 51.07283052 -16.5222168 57.7265625 C-15.93609619 58.51160156 -15.34997559 59.29664063 -14.74609375 60.10546875 C-14.21685303 60.80824951 -13.6876123 61.51103027 -13.14233398 62.23510742 C-12 64 -12 64 -12 66 C-6.72 66 -1.44 66 4 66 C0 71 0 71 -2.359375 71.48828125 C-3.14828125 71.43027344 -3.9371875 71.37226563 -4.75 71.3125 C-5.54921875 71.26738281 -6.3484375 71.22226563 -7.171875 71.17578125 C-7.77515625 71.11777344 -8.3784375 71.05976563 -9 71 C-9 70.01 -9 69.02 -9 68 C-9.62648437 67.84144531 -10.25296875 67.68289062 -10.8984375 67.51953125 C-17.65694683 65.59005146 -17.65694683 65.59005146 -19.5625 62.3125 C-19.706875 61.549375 -19.85125 60.78625 -20 60 C-20.66 60 -21.32 60 -22 60 C-22.495 58.02 -22.495 58.02 -23 56 C-23.66 56 -24.32 56 -25 56 C-25.226875 55.071875 -25.45375 54.14375 -25.6875 53.1875 C-27.2088437 49.49280817 -28.46352496 48.67517239 -32 47 C-32.66 47.99 -33.32 48.98 -34 50 C-33.34938905 51.67299959 -32.67966676 53.33859237 -32 55 C-31.43211219 59.38084879 -31.75233533 62.14288036 -34.125 65.8125 C-36.69295506 69.03148592 -38.85557026 70.32335841 -43 71 C-46.375 70.625 -46.375 70.625 -49 70 C-49 69.34 -49 68.68 -49 68 C-49.78375 68.04125 -50.5675 68.0825 -51.375 68.125 C-54 68 -54 68 -56 66 C-60.55843948 56.91464914 -59.29652489 46.09552891 -59.125 36.25 C-59.08976939 33.59708672 -59.05899366 30.94422499 -59.03366089 28.29119873 C-59.01686925 26.65053439 -58.99388565 25.00991752 -58.96365356 23.3694458 C-58.90795079 19.09935926 -59.29436082 15.22349893 -60 11 C-58.92578125 8.734375 -58.92578125 8.734375 -57.3125 6.75 C-56.79300781 6.08484375 -56.27351563 5.4196875 -55.73828125 4.734375 C-53.05888233 2.06099721 -51.05147034 1.10243551 -47.2734375 0.734375 C-46.31695312 0.73953125 -45.36046875 0.7446875 -44.375 0.75 C-43.41335937 0.74484375 -42.45171875 0.7396875 -41.4609375 0.734375 C-39 1 -39 1 -37 3 C-36.195625 3.061875 -35.39125 3.12375 -34.5625 3.1875 C-33.716875 3.455625 -32.87125 3.72375 -32 4 C-30.3125 7.5 -30.3125 7.5 -29 11 C-28.34 11.33 -27.68 11.66 -27 12 C-26.375 14.5625 -26.375 14.5625 -26 17 C-25.34 17 -24.68 17 -24 17 C-23.71125 17.639375 -23.4225 18.27875 -23.125 18.9375 C-22.17176549 21.15206079 -22.17176549 21.15206079 -20 22 C-18.9590934 23.64142963 -17.95495674 25.30712215 -17 27 C-16.34 26.67 -15.68 26.34 -15 26 C-14.82132401 22.96250819 -15.0167822 20.95360215 -16.0625 18.0625 C-17.49886038 13.37038942 -16.46314831 10.26756379 -14.8125 5.75 C-13 3 -13 3 -10.1875 1.625 C-7.03391736 1.00665046 -4.20305054 0.92551045 -1 1 C-0.67 0.67 -0.34 0.34 0 0 Z " fill="#C8A788" transform="translate(137,144)"/>
<path d="M0 0 C-0.66 0.33 -1.32 0.66 -2 1 C-1.06800781 0.97679688 -0.13601562 0.95359375 0.82421875 0.9296875 C17.77377793 0.68975441 37.93316641 2.60277517 52 13 C53.33123624 15.67864135 53.24408818 16.94889778 53 20 C53.66 20 54.32 20 55 20 C56.11327121 24.14946542 56.27499221 27.38751559 54.30859375 31.3203125 C51.3722636 35.08933329 47.50948143 36.71811695 43 38 C36.26985262 38.69323407 29.88309411 38.45829838 23.28515625 36.98828125 C17.48644442 35.7671226 11.84540358 35.70521488 5.9375 35.75 C4.91333984 35.74226563 3.88917969 35.73453125 2.83398438 35.7265625 C-4.72481013 35.7458821 -11.51219006 36.41463185 -18.4375 39.5625 C-23.756066 41.70858803 -29.4723249 42.84255837 -35 41 C-35 40.01 -35 39.02 -35 38 C-35.763125 38.061875 -36.52625 38.12375 -37.3125 38.1875 C-40 38 -40 38 -41.8125 36.75 C-43 35 -43 35 -43 31 C-43.66 31 -44.32 31 -45 31 C-47.31578947 24.05263158 -47.31578947 24.05263158 -45.875 19.25 C-42.39531369 13.21854374 -38.54988959 11.09431026 -32.33984375 8.24609375 C-29.99388247 7.1745626 -29.99388247 7.1745626 -28.671875 5.48046875 C-26.00252706 3.11672373 -22.70474151 2.6537515 -19.3125 1.875 C-18.62994141 1.70613281 -17.94738281 1.53726562 -17.24414062 1.36328125 C-4.83739189 -1.61246396 -4.83739189 -1.61246396 0 0 Z M-18 10 C-19.04671875 10.2165625 -20.0934375 10.433125 -21.171875 10.65625 C-28.46488389 12.38679448 -36.22694478 15.21580892 -40.7890625 21.44140625 C-42.59724965 25.26193072 -42.05110911 28.0124591 -41 32 C-40.18547684 34.55851025 -40.18547684 34.55851025 -38 36 C-31.1190821 37.98263736 -25.69200397 36.30524704 -19.11254883 34.00610352 C-10.41569843 30.96867659 -2.02044957 29.63220738 7.1875 29.6875 C8.09516113 29.68878906 9.00282227 29.69007812 9.93798828 29.69140625 C16.80149193 29.78822873 23.12348933 30.69272838 29.7734375 32.34375 C35.35855959 33.47970704 40.01619923 33.39158351 45.3125 31.25 C46.15425781 30.92515625 46.99601562 30.6003125 47.86328125 30.265625 C50.3806435 28.77453657 51.06004142 27.74154587 52 25 C52.08223366 21.91004903 52.08223366 21.91004903 51 19 C48.90924342 17.22598645 48.90924342 17.22598645 46 16 C44.9275 15.360625 43.855 14.72125 42.75 14.0625 C24.15774603 4.83733581 1.66689973 5.798526 -18 10 Z " fill="#D6BDA6" transform="translate(162,18)"/>
<path d="M0 0 C4.31325716 1.95317306 6.25824769 3.85321362 7.9375 8.1875 C10.18771526 16.32289363 7.75136868 23.31318647 5 31 C3.85548685 34.77016096 2.87554818 38.52301763 2.0625 42.375 C0.59609129 49.0884024 -1.28173594 55.18010843 -5 61 C-5.2475 61.825 -5.495 62.65 -5.75 63.5 C-7.61665132 67.23330264 -10.14500855 69.39014402 -14 71 C-17.11679054 71.11378759 -19.96655601 70.69473434 -23 70 C-23 69.01 -23 68.02 -23 67 C-23.94875 66.896875 -24.8975 66.79375 -25.875 66.6875 C-29 66 -29 66 -31 63 C-31.1953125 60.30078125 -31.1953125 60.30078125 -31.125 57.3125 C-31.10695312 56.31863281 -31.08890625 55.32476562 -31.0703125 54.30078125 C-31.04710937 53.54152344 -31.02390625 52.78226563 -31 52 C-27.56526669 55.43473331 -27.76275486 60.31450583 -27 65 C-21.72 65 -16.44 65 -11 65 C-10.13375 61.2565625 -10.13375 61.2565625 -9.25 57.4375 C-6.22546314 44.51470538 -2.67946066 31.75074636 1 19 C1.7515458 16.37544084 2.50073337 13.75021056 3.25 11.125 C3.8275 9.10375 4.405 7.0825 5 5 C-0.28 5 -5.56 5 -11 5 C-11.28875 6.93875 -11.5775 8.8775 -11.875 10.875 C-12.75 16.75 -12.75 16.75 -15 19 C-15.66 19 -16.32 19 -17 19 C-17.58587716 8.02022803 -17.58587716 8.02022803 -14 3 C-9.46043344 -1.1172813 -5.77901308 -1.75331335 0 0 Z " fill="#C5A180" transform="translate(272,145)"/>
<path d="M0 0 C3.375 1.75 3.375 1.75 6 4 C6.375 6.75 6.375 6.75 6 9 C6.66 9 7.32 9 8 9 C9.19875732 14.44889691 9.01092008 17.26855416 6 22 C3.88306055 24.66918452 2.32546083 25.41315397 -1 26 C-2.299375 26.309375 -2.299375 26.309375 -3.625 26.625 C-6 27 -6 27 -8 26 C-8 25.34 -8 24.68 -8 24 C-8.78375 24.04125 -9.5675 24.0825 -10.375 24.125 C-13 24 -13 24 -15 22 C-16.91070067 16.79041614 -18.51959549 11.93982318 -17.0625 6.5 C-12.30731338 0.73613744 -7.29398965 -1.85925226 0 0 Z " fill="#C09A77" transform="translate(98,67)"/>
<path d="M0 0 C-0.66 0.33 -1.32 0.66 -2 1 C-1.06800781 0.97679688 -0.13601562 0.95359375 0.82421875 0.9296875 C19.15622488 0.67018489 35.80626911 4.10234566 52 13 C52 14.65 52 16.3 52 18 C51.05125 17.278125 50.1025 16.55625 49.125 15.8125 C39.45947618 9.7650867 26.26560852 7.21974529 15 7 C14.33983887 6.97566895 13.67967773 6.95133789 12.99951172 6.92626953 C-2.18117809 6.38922469 -18.29954491 6.67966096 -31.96875 14.01171875 C-34 15 -34 15 -37 15 C-37 15.66 -37 16.32 -37 17 C-37.639375 17.268125 -38.27875 17.53625 -38.9375 17.8125 C-41.33131686 18.88667752 -41.33131686 18.88667752 -42 22 C-42.27690465 27.53809295 -41.74960184 31.75119447 -40 37 C-40.99 36.34 -41.98 35.68 -43 35 C-43 33.68 -43 32.36 -43 31 C-43.66 31 -44.32 31 -45 31 C-47.31578947 24.05263158 -47.31578947 24.05263158 -45.875 19.25 C-42.39531369 13.21854374 -38.54988959 11.09431026 -32.33984375 8.24609375 C-29.99388247 7.1745626 -29.99388247 7.1745626 -28.671875 5.48046875 C-26.00252706 3.11672373 -22.70474151 2.6537515 -19.3125 1.875 C-18.62994141 1.70613281 -17.94738281 1.53726562 -17.24414062 1.36328125 C-4.83739189 -1.61246396 -4.83739189 -1.61246396 0 0 Z " fill="#C7A686" transform="translate(162,18)"/>
<path d="M0 0 C0.99 0.66 1.98 1.32 3 2 C3 2.66 3 3.32 3 4 C3.99 4.33 4.98 4.66 6 5 C7.52320084 12.24416082 8.29927265 19.12656276 8.265625 26.5234375 C8.26849518 27.94724228 8.26849518 27.94724228 8.27142334 29.39981079 C8.27277229 31.38454456 8.26916711 33.36928756 8.26074219 35.35400391 C8.24995183 38.38854617 8.26071823 41.42250617 8.2734375 44.45703125 C8.27211708 46.39583463 8.26955711 48.33463766 8.265625 50.2734375 C8.26967346 51.17556976 8.27372192 52.07770203 8.27789307 53.00717163 C8.24477512 57.44629875 8.09633056 60.96659339 6 65 C5.67 65 5.34 65 5 65 C5 45.53 5 26.06 5 6 C-0.28 6 -5.56 6 -11 6 C-11 18.54 -11 31.08 -11 44 C-13 43 -13 43 -14.5 39.75 C-16.8299428 34.84111287 -20.09302246 30.78776005 -23.47070312 26.56933594 C-25.65631702 23.82488147 -27.60385082 21.23153629 -29 18 C-27.0625 18.3125 -27.0625 18.3125 -25 19 C-24.67 19.99 -24.34 20.98 -24 22 C-19.93749196 25.20919944 -19.93749196 25.20919944 -15 26 C-14.82132401 22.96250819 -15.0167822 20.95360215 -16.0625 18.0625 C-17.49886038 13.37038942 -16.46314831 10.26756379 -14.8125 5.75 C-13 3 -13 3 -10.1875 1.625 C-7.03391736 1.00665046 -4.20305054 0.92551045 -1 1 C-0.67 0.67 -0.34 0.34 0 0 Z " fill="#CEB195" transform="translate(137,144)"/>
<path d="M0 0 C1.6752357 -0.28718326 3.34080104 -0.63128912 5 -1 C9.84874609 -1.52067072 14.40195912 -2.00053116 18.5 1 C24.10566301 7.72679561 23.25000083 15.66663913 23 24 C20.83614399 20.75421598 20.2255829 18.34716433 19.375 14.5625 C19.11460937 13.42941406 18.85421875 12.29632813 18.5859375 11.12890625 C18 8 18 8 18 4 C12.39 4 6.78 4 1 4 C0.67 4.66 0.34 5.32 0 6 C-0.99 6 -1.98 6 -3 6 C-3 5.34 -3 4.68 -3 4 C-15.21 4 -27.42 4 -40 4 C-35.39772225 -1.75284719 -35.39772225 -1.75284719 -30.46484375 -2.7265625 C-20.38816131 -3.84441951 -9.46185421 -3.78474168 0 0 Z " fill="#C29D7B" transform="translate(194,146)"/>
<path d="M0 0 C0.66 0 1.32 0 2 0 C3.11327121 4.14946542 3.27499221 7.38751559 1.30859375 11.3203125 C-1.6277364 15.08933329 -5.49051857 16.71811695 -10 18 C-16.73014738 18.69323407 -23.11690589 18.45829838 -29.71484375 16.98828125 C-35.51355558 15.7671226 -41.15459642 15.70521488 -47.0625 15.75 C-48.08666016 15.74226563 -49.11082031 15.73453125 -50.16601562 15.7265625 C-57.72481013 15.7458821 -64.51219006 16.41463185 -71.4375 19.5625 C-76.756066 21.70858803 -82.4723249 22.84255837 -88 21 C-88 20.34 -88 19.68 -88 19 C-87.18917969 18.90203125 -86.37835938 18.8040625 -85.54296875 18.703125 C-78.87553737 17.8027501 -72.94093732 16.43837466 -66.671875 14.01953125 C-53.52246194 9.00199206 -41.69975026 9.23536571 -28 12 C-28 12.66 -28 13.32 -28 14 C-15.62470753 14.64010422 -15.62470753 14.64010422 -4 11 C-1.6870518 8.6870518 -1.50419025 7.52095125 -0.875 4.375 C-0.70742187 3.55773438 -0.53984375 2.74046875 -0.3671875 1.8984375 C-0.18542969 0.95871094 -0.18542969 0.95871094 0 0 Z " fill="#C39E7C" transform="translate(215,38)"/>
<path d="M0 0 C4.7034236 7.05513539 6.25275587 16.2214398 8.5 24.3125 C8.79519531 25.36373047 9.09039062 26.41496094 9.39453125 27.49804688 C11.38662264 34.63710565 13.22907006 41.80289751 15 49 C19.95 49.33 24.9 49.66 30 50 C30.26554687 48.87980469 30.53109375 47.75960937 30.8046875 46.60546875 C31.16114496 45.13273662 31.51793308 43.66008449 31.875 42.1875 C32.04902344 41.44951172 32.22304687 40.71152344 32.40234375 39.95117188 C33.24492511 36.50282963 34.01285575 33.98071638 36 31 C38.125 30.3125 38.125 30.3125 40 30 C39.01 31.32 38.02 32.64 37 34 C38.05270463 35.15811388 38.05270463 35.15811388 40 36 C39.51273438 36.40605469 39.02546875 36.81210938 38.5234375 37.23046875 C36.64430385 39.41315476 36.67397286 40.47697157 36.625 43.3125 C36.2081799 48.4227144 34.78751859 50.55680128 31 54 C27.39258205 55.29497055 23.81148447 55.08863917 20 55 C20 54.34 20 53.68 20 53 C19.13375 52.814375 19.13375 52.814375 18.25 52.625 C13.95121951 51.43089431 13.95121951 51.43089431 12 50 C11.30643577 47.67451993 10.63850788 45.34119555 10 43 C9.01 42.67 8.02 42.34 7 42 C6.86722656 41.21753906 6.73445312 40.43507812 6.59765625 39.62890625 C6.42105469 38.61699219 6.24445313 37.60507813 6.0625 36.5625 C5.88847656 35.55316406 5.71445313 34.54382813 5.53515625 33.50390625 C5.25248903 31.0712562 5.25248903 31.0712562 4 30 C3.45967778 27.21029286 2.96253398 24.42768113 2.5 21.625 C2.24169458 20.07516748 1.98135591 18.52567214 1.71875 16.9765625 C1.60466797 16.28643066 1.49058594 15.59629883 1.37304688 14.88525391 C0.99898193 12.78684306 0.99898193 12.78684306 0 10 C-0.06802967 8.27204648 -0.08495645 6.54164635 -0.0625 4.8125 C-0.05347656 3.91144531 -0.04445312 3.01039063 -0.03515625 2.08203125 C-0.02355469 1.39496094 -0.01195312 0.70789063 0 0 Z " fill="#D4B9A1" transform="translate(197,160)"/>
<path d="M0 0 C2.74496056 2.74496056 4.65332484 5.29632902 6.8125 8.5 C11.49448769 15.39609978 16.45869403 22.07283052 21.4777832 28.7265625 C22.06390381 29.51160156 22.65002441 30.29664063 23.25390625 31.10546875 C23.78314697 31.80824951 24.3123877 32.51103027 24.85766602 33.23510742 C26 35 26 35 26 37 C31.28 37 36.56 37 42 37 C38 42 38 42 35.640625 42.48828125 C34.45726562 42.40126953 34.45726562 42.40126953 33.25 42.3125 C32.45078125 42.26738281 31.6515625 42.22226563 30.828125 42.17578125 C30.22484375 42.11777344 29.6215625 42.05976563 29 42 C29 41.01 29 40.02 29 39 C28.06027344 38.76216797 28.06027344 38.76216797 27.1015625 38.51953125 C20.34305317 36.59005146 20.34305317 36.59005146 18.4375 33.3125 C18.293125 32.549375 18.14875 31.78625 18 31 C17.34 31 16.68 31 16 31 C15.67 29.68 15.34 28.36 15 27 C14.34 27 13.68 27 13 27 C12.773125 26.071875 12.54625 25.14375 12.3125 24.1875 C10.7911563 20.49280817 9.53647504 19.67517239 6 18 C3.11787597 20.88212403 3.62391121 23.54772541 3.44140625 27.4921875 C3 30 3 30 0 34 C0 22.78 0 11.56 0 0 Z " fill="#CEB094" transform="translate(99,173)"/>
<path d="M0 0 C2.21894218 1.17058602 4.00416775 2.45323 6 4 C5.18249258 23.81750742 5.18249258 23.81750742 1 28 C0.69236299 29.51381775 0.43075942 31.03701333 0.1875 32.5625 C-0.70179722 37.57550138 -1.72061983 42.54229423 -2.875 47.5 C-3.09893433 48.54136108 -3.09893433 48.54136108 -3.32739258 49.60375977 C-4.09544259 52.80599794 -4.68150162 54.7060015 -7.1328125 56.96875 C-7.74898438 57.3090625 -8.36515625 57.649375 -9 58 C-6.51608294 44.77609871 -2.70144069 31.92230563 1 19 C1.448254 17.42587727 1.89621173 15.85167012 2.34375 14.27734375 C3.22495281 11.18369245 4.11161057 8.09159522 5 5 C-0.28 5 -5.56 5 -11 5 C-11.28875 6.93875 -11.5775 8.8775 -11.875 10.875 C-12.75 16.75 -12.75 16.75 -15 19 C-15.66 19 -16.32 19 -17 19 C-17.58587716 8.02022803 -17.58587716 8.02022803 -14 3 C-9.50363424 -1.07809918 -5.73624977 -1.83241312 0 0 Z " fill="#C9A88A" transform="translate(272,145)"/>
<path d="M0 0 C2.21278489 2.28193442 2.96760679 3.81302014 3.0546875 7.00390625 C2.80875847 9.90693809 2.34671943 12.40287209 0.875 14.9375 C-2.09919941 16.62287966 -4.60414465 16.88290154 -8 17 C-10.875 16.0625 -10.875 16.0625 -13 14 C-14.38500707 10.04161559 -14.41211986 6.99776387 -12.8125 3.125 C-8.93082626 -1.42592783 -5.76413286 -1.57203623 0 0 Z " fill="#FEFDFD" transform="translate(99,72)"/>
<path d="M0 0 C0.495 1.485 0.495 1.485 1 3 C1.66 3 2.32 3 3 3 C5.32291667 9.23519737 5.32291667 9.23519737 3.8125 12.8125 C2 15 2 15 -1 17 C-1.99 17 -2.98 17 -4 17 C-4.99 17.66 -5.98 18.32 -7 19 C-15.03606476 21.15300711 -24.21368372 20.89723396 -32 18 C-31.67 17.01 -31.34 16.02 -31 15 C-32.65 14.67 -34.3 14.34 -36 14 C-36 13.67 -36 13.34 -36 13 C-24.12 13 -12.24 13 0 13 C0 8.71 0 4.42 0 0 Z " fill="#CAAA8C" transform="translate(191,197)"/>
<path d="M0 0 C-0.66 0.33 -1.32 0.66 -2 1 C-1.06800781 0.97679688 -0.13601562 0.95359375 0.82421875 0.9296875 C9.31538716 0.80948896 17.70334987 0.90970868 26 3 C26.99 3.99 26.99 3.99 28 5 C26.51113281 4.89171875 26.51113281 4.89171875 24.9921875 4.78125 C4.7973795 3.36846512 -14.26669853 3.34764061 -33 12 C-33.74121094 12.34160156 -34.48242188 12.68320312 -35.24609375 13.03515625 C-39.16197655 15.04601499 -41.3916291 16.8897188 -43 21 C-43.51614831 24.32685696 -43.81078175 27.63974485 -44 31 C-46.67666871 28.32333129 -46.78714133 26.76050325 -47 23 C-45.11536539 17.24690488 -43.03594125 13.59287049 -37.625 10.75390625 C-35.87381103 9.89612909 -34.11229683 9.05902336 -32.33984375 8.24609375 C-29.99388247 7.1745626 -29.99388247 7.1745626 -28.671875 5.48046875 C-26.00252706 3.11672373 -22.70474151 2.6537515 -19.3125 1.875 C-18.62994141 1.70613281 -17.94738281 1.53726562 -17.24414062 1.36328125 C-4.83739189 -1.61246396 -4.83739189 -1.61246396 0 0 Z " fill="#BD9570" transform="translate(162,18)"/>
<path d="M0 0 C0.625 1.875 0.625 1.875 1 4 C0.34 4.66 -0.32 5.32 -1 6 C-1.33 7.98 -1.66 9.96 -2 12 C-8.27 12 -14.54 12 -21 12 C-21 9.03 -21 6.06 -21 3 C-14.4 3 -7.8 3 -1 3 C-0.67 2.01 -0.34 1.02 0 0 Z " fill="#D2B79E" transform="translate(191,184)"/>
<path d="M0 0 C0.99 0.66 1.98 1.32 3 2 C3 2.66 3 3.32 3 4 C3.99 4 4.98 4 6 4 C7.97094808 8.92737019 8.1799928 12.78020872 8 18 C8.66 18 9.32 18 10 18 C10 19.65 10 21.3 10 23 C8 22 8 22 6.9296875 19.1640625 C6.58164063 17.99617188 6.23359375 16.82828125 5.875 15.625 C5.52179688 14.46226562 5.16859375 13.29953125 4.8046875 12.1015625 C4 9 4 9 4 6 C-0.29 6 -4.58 6 -9 6 C-10.32 11.61 -11.64 17.22 -13 23 C-15 21 -15 21 -15.265625 19.08203125 C-15.18434811 7.27656334 -15.18434811 7.27656334 -11.51953125 3.45703125 C-7.75712722 0.49195788 -4.89467223 -0.77869785 0 0 Z " fill="#C29E7B" transform="translate(239,144)"/>
<path d="M0 0 C0.33 0 0.66 0 1 0 C1 11.22 1 22.44 1 34 C-1 33 -1 33 -2.5 29.75 C-4.8299428 24.84111287 -8.09302246 20.78776005 -11.47070312 16.56933594 C-13.65631702 13.82488147 -15.60385082 11.23153629 -17 8 C-15.0625 8.3125 -15.0625 8.3125 -13 9 C-12.67 9.99 -12.34 10.98 -12 12 C-7.93749196 15.20919944 -7.93749196 15.20919944 -3 16 C-2.01 10.72 -1.02 5.44 0 0 Z " fill="#D2B89E" transform="translate(125,154)"/>
<path d="M0 0 C0.66 0.33 1.32 0.66 2 1 C1.01 1.99 0.02 2.98 -1 4 C0.05270463 5.15811388 0.05270463 5.15811388 2 6 C1.51273438 6.40605469 1.02546875 6.81210938 0.5234375 7.23046875 C-1.35569615 9.41315476 -1.32602714 10.47697157 -1.375 13.3125 C-1.7918201 18.4227144 -3.21248141 20.55680128 -7 24 C-10.60741795 25.29497055 -14.18851553 25.08863917 -18 25 C-18 24.34 -18 23.68 -18 23 C-18.5775 22.87625 -19.155 22.7525 -19.75 22.625 C-24.15139442 21.40239044 -24.15139442 21.40239044 -26 20 C-26.75 16.375 -26.75 16.375 -27 13 C-24.7522025 15.05233685 -23.9977758 16.00667261 -23 19 C-18.05 19.33 -13.1 19.66 -8 20 C-7.73445313 18.87980469 -7.46890625 17.75960937 -7.1953125 16.60546875 C-6.83885504 15.13273662 -6.48206692 13.66008449 -6.125 12.1875 C-5.86396484 11.08051758 -5.86396484 11.08051758 -5.59765625 9.95117188 C-4.75507489 6.50282963 -3.98714425 3.98071638 -2 1 C-1.34 0.67 -0.68 0.34 0 0 Z " fill="#CAAA8C" transform="translate(235,190)"/>
<path d="M0 0 C0.33 0 0.66 0 1 0 C1 19.47 1 38.94 1 59 C0.67 59 0.34 59 0 59 C-2.57777926 49.15570176 -2.30463978 39.16631225 -2.26074219 29.07324219 C-2.24994944 26.11112352 -2.26072042 23.1496011 -2.2734375 20.1875 C-2.2721171 18.2942695 -2.26955719 16.40103937 -2.265625 14.5078125 C-2.26967346 13.62755402 -2.27372192 12.74729553 -2.27789307 11.84036255 C-2.24432924 7.4480589 -2.06167082 3.99538293 0 0 Z " fill="#CEB195" transform="translate(153,150)"/>
<path d="M0 0 C-0.33 0.66 -0.66 1.32 -1 2 C-1.58193115 1.85852539 -2.1638623 1.71705078 -2.76342773 1.57128906 C-9.59158117 0.04302894 -16.08100643 -0.30292351 -23.0625 -0.25 C-24.08666016 -0.25773437 -25.11082031 -0.26546875 -26.16601562 -0.2734375 C-33.72481013 -0.2541179 -40.51219006 0.41463185 -47.4375 3.5625 C-52.756066 5.70858803 -58.4723249 6.84255837 -64 5 C-64 4.34 -64 3.68 -64 3 C-63.10796875 2.87882812 -62.2159375 2.75765625 -61.296875 2.6328125 C-59.54117188 2.38144531 -59.54117188 2.38144531 -57.75 2.125 C-56.58984375 1.96257813 -55.4296875 1.80015625 -54.234375 1.6328125 C-51.12743403 1.17657922 -51.12743403 1.17657922 -49.01953125 0 C-36.11583696 -6.38945017 -13.11190537 -4.39680659 0 0 Z " fill="#BF9975" transform="translate(191,54)"/>
<path d="M0 0 C2.66122604 4.90799884 3.61971555 9.66414909 2.1875 15.0625 C1.795625 16.031875 1.40375 17.00125 1 18 C0.32215008 20.33010909 -0.34416793 22.66359824 -1 25 C-1.33 26.11375 -1.66 27.2275 -2 28.375 C-2.75936102 31.12768369 -3.40895367 33.83600011 -4 36.625 C-4.70822174 39.91317236 -5.60995377 42.92204049 -7 46 C-7.33 46 -7.66 46 -8 46 C-8.02712066 44.56260487 -8.04645067 43.12506137 -8.0625 41.6875 C-8.07410156 40.88699219 -8.08570313 40.08648437 -8.09765625 39.26171875 C-8 37 -8 37 -7 34 C-6.7686182 31.0691638 -6.61961765 28.13952015 -6.4765625 25.203125 C-5.91582846 21.43425686 -4.51591321 18.48924661 -3 15 C-2.29552763 12.37750684 -1.79229926 9.73416911 -1.3125 7.0625 C-1.18294922 6.37865234 -1.05339844 5.69480469 -0.91992188 4.99023438 C-0.60610402 3.32816202 -0.30200834 1.66425873 0 0 Z " fill="#C6A383" transform="translate(278,151)"/>
<path d="M0 0 C2.54007242 7.60207389 -0.96636523 16.04792033 -4 23 C-4.35252756 24.63772645 -4.6605026 26.28532082 -4.9375 27.9375 C-5.76146696 32.83363426 -6.7465406 37.66631419 -7.875 42.5 C-8.02445068 43.19472412 -8.17390137 43.88944824 -8.32788086 44.60522461 C-9.09561422 47.80706189 -9.68190454 49.70637342 -12.1328125 51.96875 C-12.74898438 52.3090625 -13.36515625 52.649375 -14 53 C-11.51608294 39.77609871 -7.70144069 26.92230563 -4 14 C-3.551746 12.42587727 -3.10378827 10.85167012 -2.65625 9.27734375 C-1.77503854 6.18366207 -0.89027601 3.09108254 0 0 Z " fill="#D3B9A1" transform="translate(277,150)"/>
<path d="M0 0 C0.76441406 0.06703125 1.52882813 0.1340625 2.31640625 0.203125 C4.9391189 0.87933084 5.88615581 1.52963863 7.4375 3.75 C8.31827786 8.87596843 8.25433644 13.38860593 5.5625 17.875 C2.42943434 20.6394697 0.60479216 20.92766886 -3.5 21 C-4.37527344 21.02578125 -5.25054687 21.0515625 -6.15234375 21.078125 C-8.5625 20.75 -8.5625 20.75 -10.3203125 19.4609375 C-12.48249797 16.48283299 -12.77111587 13.31487715 -12.5625 9.75 C-11.6527001 6.49414306 -10.56087969 3.49252108 -8.5625 0.75 C-5.6709837 -0.44669897 -3.07916341 -0.31260542 0 0 Z M-8.5625 4.75 C-10.68798028 7.35854398 -10.6962729 9.56507565 -10.5 12.8125 C-10.00431721 15.8663618 -9.74393604 16.57390032 -7.4375 18.8125 C-3.71380413 20.02674865 -1.33474325 19.72798899 2.4375 18.75 C4.45701062 17.81402685 4.45701062 17.81402685 5.4375 15.75 C6.41054932 11.44078159 6.85709673 8.98256539 5.4375 4.8125 C3.48818904 2.46485707 3.48818904 2.46485707 0.0625 1.75 C-3.95692486 1.75 -5.49699135 2.21000712 -8.5625 4.75 Z " fill="#CFB297" transform="translate(95.5625,69.25)"/>
<path d="M0 0 C0.66 0 1.32 0 2 0 C4.97877748 3.26208512 7.51466765 6.75970622 9.125 10.875 C9.80760939 13.06911067 9.80760939 13.06911067 11.5390625 14.09375 C15.04725295 15.38565505 18.55288907 15.46823205 22.25 15.625 C22.99507812 15.66367188 23.74015625 15.70234375 24.5078125 15.7421875 C26.3381524 15.83605108 28.16904143 15.91909718 30 16 C26.66083151 20.86323851 26.66083151 20.86323851 23.640625 21.48828125 C22.85171875 21.43027344 22.0628125 21.37226563 21.25 21.3125 C20.05117187 21.24482422 20.05117187 21.24482422 18.828125 21.17578125 C18.22484375 21.11777344 17.6215625 21.05976563 17 21 C17 20.01 17 19.02 17 18 C16.06027344 17.76216797 16.06027344 17.76216797 15.1015625 17.51953125 C8.34305317 15.59005146 8.34305317 15.59005146 6.4375 12.3125 C6.293125 11.549375 6.14875 10.78625 6 10 C5.34 10 4.68 10 4 10 C3.67 8.68 3.34 7.36 3 6 C2.34 6 1.68 6 1 6 C0.67 4.02 0.34 2.04 0 0 Z " fill="#C9A98B" transform="translate(111,194)"/>
<path d="M0 0 C1.39175697 -0.00945648 1.39175697 -0.00945648 2.81163025 -0.019104 C3.8116658 -0.01505554 4.81170135 -0.01100708 5.84204102 -0.00683594 C6.87152359 -0.00874939 7.90100616 -0.01066284 8.96168518 -0.01263428 C11.13966109 -0.01399573 13.31764513 -0.01030211 15.49560547 -0.00195312 C18.82936866 0.00873591 22.16259162 -0.00184433 25.49633789 -0.01464844 C27.61157346 -0.01332662 29.72680868 -0.01076377 31.84204102 -0.00683594 C32.84005234 -0.0108844 33.83806366 -0.01493286 34.86631775 -0.019104 C36.26280296 -0.00964752 36.26280296 -0.00964752 37.6875 0 C38.50451889 0.00159119 39.32153778 0.00318237 40.16331482 0.00482178 C42.40844727 0.25878906 42.40844727 0.25878906 46.40844727 2.25878906 C40.79844727 2.25878906 35.18844727 2.25878906 29.40844727 2.25878906 C29.07844727 2.91878906 28.74844727 3.57878906 28.40844727 4.25878906 C27.41844727 4.25878906 26.42844727 4.25878906 25.40844727 4.25878906 C25.40844727 3.59878906 25.40844727 2.93878906 25.40844727 2.25878906 C14.51844727 2.25878906 3.62844727 2.25878906 -7.59155273 2.25878906 C-4.41633236 0.14197548 -3.63444503 0.00708517 0 0 Z " fill="#CEB095" transform="translate(165.591552734375,147.7412109375)"/>
<path d="M0 0 C0 0.66 0 1.32 0 2 C-1.28583984 2.45439453 -1.28583984 2.45439453 -2.59765625 2.91796875 C-12.03502346 6.22511994 -12.03502346 6.22511994 -20 12 C-21.66008327 16.21136914 -21.28057293 19.22842443 -19.75 23.4375 C-18.19340107 26.27169035 -18.19340107 26.27169035 -15 27 C-12.42734182 27.07029121 -9.88358569 27.09370832 -7.3125 27.0625 C-6.61060547 27.05798828 -5.90871094 27.05347656 -5.18554688 27.04882812 C-3.45699462 27.03706927 -1.72848635 27.01913454 0 27 C-2.35773594 29.35773594 -3.99374948 29.94201268 -7.3046875 30.1328125 C-9.87183573 30.12500962 -12.43395507 30.07390209 -15 30 C-15.969375 30 -16.93875 30 -17.9375 30 C-20 29 -20 29 -21.8125 25.4375 C-23.4993118 20.0589801 -24.00563637 15.29859741 -21.6875 10 C-21.130625 9.34 -20.57375 8.68 -20 8 C-19.01 8 -18.02 8 -17 8 C-17 7.34 -17 6.68 -17 6 C-16.15695313 5.65066406 -15.31390625 5.30132812 -14.4453125 4.94140625 C-13.34960938 4.48636719 -12.25390625 4.03132813 -11.125 3.5625 C-10.03445312 3.11003906 -8.94390625 2.65757813 -7.8203125 2.19140625 C-2.63278689 0 -2.63278689 0 0 0 Z " fill="#CFB398" transform="translate(142,27)"/>
<path d="M0 0 C9.41002278 -0.18451025 9.41002278 -0.18451025 14 1 C14 1.66 14 2.32 14 3 C14.763125 3.268125 15.52625 3.53625 16.3125 3.8125 C18.95915172 4.98195076 20.29555616 5.69900082 22 8 C22.6875 10.6875 22.6875 10.6875 23 13 C23.66 13 24.32 13 25 13 C25.28875 13.639375 25.5775 14.27875 25.875 14.9375 C26.82823451 17.15206079 26.82823451 17.15206079 29 18 C29 18.66 29 19.32 29 20 C26.5625 19.1875 26.5625 19.1875 24 18 C23.67 17.01 23.34 16.02 23 15 C22.08734375 14.82984375 22.08734375 14.82984375 21.15625 14.65625 C17.87954507 13.65899198 17.199342 11.39186271 15.5 8.5 C12.51925069 4.12997919 12.51925069 4.12997919 7.8125 2.05078125 C4.82974539 1.83621989 1.98117269 1.78634929 -1 2 C-0.67 1.34 -0.34 0.68 0 0 Z " fill="#C8A788" transform="translate(88,148)"/>
<path d="M0 0 C0.99 0.66 1.98 1.32 3 2 C2.67 2.66 2.34 3.32 2 4 C-1.3 3.67 -4.6 3.34 -8 3 C-8.33 3.99 -8.66 4.98 -9 6 C-9.66 6 -10.32 6 -11 6 C-11.66 11.61 -12.32 17.22 -13 23 C-15 22 -15 22 -15.73828125 20.25 C-17.08404562 14.97680083 -17.1960199 10.99892435 -15.1796875 5.88671875 C-13.1290897 2.60712029 -10.63097485 1.9231292 -7 1 C-3.625 0.875 -3.625 0.875 -1 1 C-0.67 0.67 -0.34 0.34 0 0 Z " fill="#C09B77" transform="translate(137,144)"/>
<path d="M0 0 C-6.22209447 5.3003027 -14.22357172 4.41029008 -22 4 C-24.49961493 3.53259233 -26.61044174 2.88913796 -29 2 C-29 1.34 -29 0.68 -29 0 C-24.5420032 -0.19616609 -20.08359465 -0.38047068 -15.625 -0.5625 C-14.35398438 -0.61857422 -13.08296875 -0.67464844 -11.7734375 -0.73242188 C-10.56171875 -0.78076172 -9.35 -0.82910156 -8.1015625 -0.87890625 C-6.98088379 -0.9260376 -5.86020508 -0.97316895 -4.70556641 -1.02172852 C-2 -1 -2 -1 0 0 Z " fill="#C19B78" transform="translate(188,213)"/>
<path d="M0 0 C0 0.33 0 0.66 0 1 C-0.75506836 1.02505615 -1.51013672 1.0501123 -2.28808594 1.07592773 C-5.77550094 1.19340024 -9.26274309 1.31542779 -12.75 1.4375 C-13.93722656 1.47681641 -15.12445313 1.51613281 -16.34765625 1.55664062 C-23.92323744 1.82571865 -31.45255932 2.29296964 -39 3 C-27.53409472 -4.64393685 -12.76897243 -2.57680164 0 0 Z " fill="#CAA98B" transform="translate(187,50)"/>
<path d="M0 0 C2.0234375 -0.328125 2.0234375 -0.328125 4.375 -0.25 C5.14585937 -0.23453125 5.91671875 -0.2190625 6.7109375 -0.203125 C8.9487125 -0.00455111 10.88449046 0.23786229 13 1 C15.28258584 5.67930096 15.17523261 9.91825435 15 15 C15.66 15 16.32 15 17 15 C17 16.65 17 18.3 17 20 C15 19 15 19 13.9296875 16.1640625 C13.58164063 14.99617187 13.23359375 13.82828125 12.875 12.625 C12.52179688 11.46226562 12.16859375 10.29953125 11.8046875 9.1015625 C11 6 11 6 11 3 C6.71 3 2.42 3 -2 3 C-1.34 2.01 -0.68 1.02 0 0 Z " fill="#C8A787" transform="translate(232,147)"/>
<path d="M0 0 C1.9083857 1.60385606 2.89606185 2.55306597 3.46875 5.015625 C3.54119524 10.19545935 2.82286544 13.57262675 -0.51171875 17.62109375 C-2.86291565 19.79949927 -4.8598481 20.48732214 -8 21 C-11.375 20.625 -11.375 20.625 -14 20 C-14 19.67 -14 19.34 -14 19 C-8.555 18.01 -8.555 18.01 -3 17 C-2.7834375 15.576875 -2.7834375 15.576875 -2.5625 14.125 C-2 11 -2 11 -1 9 C-0.77532169 7.46331135 -0.59203195 5.92031946 -0.4375 4.375 C-0.35371094 3.55773437 -0.26992187 2.74046875 -0.18359375 1.8984375 C-0.12300781 1.27195313 -0.06242187 0.64546875 0 0 Z " fill="#C29D7B" transform="translate(102,194)"/>
<path d="M0 0 C2.79784711 2.79784711 4.60711005 5.35102555 6.6875 8.6875 C7.31011719 9.68136719 7.93273437 10.67523438 8.57421875 11.69921875 C9.04472656 12.45847656 9.51523438 13.21773437 10 14 C8.68 14 7.36 14 6 14 C5.34 13.34 4.68 12.68 4 12 C1.23776722 14.76223278 1.42143709 17.20706617 1 21 C0.67 21 0.34 21 0 21 C0 14.07 0 7.14 0 0 Z " fill="#DCC8B4" transform="translate(99,173)"/>
<path d="M0 0 C7.9079343 2.18782108 15.03704442 4.60991948 22 9 C22 10.65 22 12.3 22 14 C21.49210937 13.66226563 20.98421875 13.32453125 20.4609375 12.9765625 C16.40088512 10.34589186 12.712194 8.29585335 8 7 C8 6.34 8 5.68 8 5 C7.2575 4.896875 6.515 4.79375 5.75 4.6875 C2.82985982 3.95746496 1.26812446 2.93210602 -1 1 C-0.67 0.67 -0.34 0.34 0 0 Z " fill="#C09A76" transform="translate(192,22)"/>
<path d="M0 0 C3.43473331 3.43473331 3.23724514 8.31450583 4 13 C8.95 13 13.9 13 19 13 C18.67 13.66 18.34 14.32 18 15 C11.62475921 16.62434296 6.67266273 16.25876369 1 13 C-0.32229189 10.35541621 -0.09677194 8.32238699 -0.0625 5.375 C-0.05347656 4.37210938 -0.04445312 3.36921875 -0.03515625 2.3359375 C-0.02355469 1.56507813 -0.01195312 0.79421875 0 0 Z " fill="#CCAD91" transform="translate(241,197)"/>
<path d="M0 0 C5.94 0 11.88 0 18 0 C14 2 14 2 10.4375 1.9375 C7.11425036 1.70013346 7.11425036 1.70013346 5.125 3.1875 C3.73770965 5.4225789 3.35012787 7.40905378 3 10 C2.01 10 1.02 10 0 10 C0 6.7 0 3.4 0 0 Z " fill="#D9C2AC" transform="translate(170,164)"/>
<path d="M0 0 C0.99 0 1.98 0 3 0 C1.86457505 4.41554148 -0.24604133 6.64486659 -3.9140625 9.12890625 C-7.63282358 10.68187202 -11.17171989 9.87677164 -15 9 C-15 8.34 -15 7.68 -15 7 C-14.33613281 6.91363281 -13.67226562 6.82726562 -12.98828125 6.73828125 C-7.00080563 5.78552965 -4.09329238 4.71348819 0 0 Z " fill="#C29C7A" transform="translate(264,206)"/>
<path d="M0 0 C0.6875 1.8125 0.6875 1.8125 1 4 C-1.91520283 7.52703553 -5.63123108 8.98594553 -10 10 C-21.08578733 10.9368271 -21.08578733 10.9368271 -26 8 C-25.03320312 7.97421875 -24.06640625 7.9484375 -23.0703125 7.921875 C-11.53320886 7.45826578 -11.53320886 7.45826578 -1 3 C-0.67 2.01 -0.34 1.02 0 0 Z " fill="#D0B499" transform="translate(213,43)"/>
<path d="M0 0 C0.66 0.33 1.32 0.66 2 1 C0.515 2.485 0.515 2.485 -1 4 C0.05270463 5.15811388 0.05270463 5.15811388 2 6 C1.4225 6.66 0.845 7.32 0.25 8 C-2.00663615 11.0088482 -3.52159785 13.92351262 -5.0703125 17.328125 C-6 19 -6 19 -8 20 C-7.38221953 17.39392608 -6.75612789 14.79034303 -6.125 12.1875 C-5.95097656 11.44951172 -5.77695313 10.71152344 -5.59765625 9.95117188 C-4.75507489 6.50282963 -3.98714425 3.98071638 -2 1 C-1.34 0.67 -0.68 0.34 0 0 Z " fill="#D7BFA9" transform="translate(235,190)"/>
<path d="M0 0 C2.22336326 1.16573803 4.00282514 2.45218948 6 4 C3 5 3 5 0 4 C-1.99741736 3.8807098 -3.99906124 3.82476065 -6 3.8125 C-7.5778125 3.79123047 -7.5778125 3.79123047 -9.1875 3.76953125 C-12.20758688 3.78819074 -12.20758688 3.78819074 -15 6 C-14.00456145 3.375662 -13.02807645 2.02394756 -10.875 0.1875 C-7.04121305 -1.3960207 -3.8947615 -1.15400341 0 0 Z " fill="#C19C79" transform="translate(272,145)"/>
<path d="M0 0 C0.33 0 0.66 0 1 0 C1 4.62 1 9.24 1 14 C-1.51620531 12.74189735 -1.80835636 11.69646845 -3 9.1875 C-3.33 8.50042969 -3.66 7.81335938 -4 7.10546875 C-4.33 6.41066406 -4.66 5.71585938 -5 5 C-5.66389899 3.66528641 -6.3297451 2.33153317 -7 1 C-5.824375 1.309375 -5.824375 1.309375 -4.625 1.625 C-3.75875 1.74875 -2.8925 1.8725 -2 2 C-1.34 1.34 -0.68 0.68 0 0 Z " fill="#DFCDBB" transform="translate(125,174)"/>
<path d="M0 0 C0.33 0 0.66 0 1 0 C1.42154726 4.21547257 1.42275746 7.01429352 -1.1875 10.375 C-5.59022923 14.48421395 -9.17457782 14.13547493 -15 14 C-15 13.34 -15 12.68 -15 12 C-13.4221875 11.87625 -13.4221875 11.87625 -11.8125 11.75 C-7.57579593 10.91655002 -5.94578599 10.10944077 -3 7 C-1.77103066 4.70000115 -0.89944246 2.46163199 0 0 Z " fill="#C29E7C" transform="translate(232,201)"/>
<path d="M0 0 C10.82926829 -0.21233859 10.82926829 -0.21233859 14 1 C15.625 3.25 15.625 3.25 17 6 C17.5775 6.86625 18.155 7.7325 18.75 8.625 C19.1625 9.40875 19.575 10.1925 20 11 C19.67 11.99 19.34 12.98 19 14 C18.34257813 12.82630859 18.34257813 12.82630859 17.671875 11.62890625 C13.93812312 5.39634078 13.93812312 5.39634078 7.796875 2.046875 C4.82025968 1.83526728 1.9749717 1.78679369 -1 2 C-0.67 1.34 -0.34 0.68 0 0 Z " fill="#CDB094" transform="translate(88,148)"/>
<path d="M0 0 C0.33 1.32 0.66 2.64 1 4 C3.86724686 3.42655063 4.8614515 3.1385485 7 1 C6.52060632 5.71403788 6.03165952 9.66579301 4 14 C3.34 13.67 2.68 13.34 2 13 C0.66649933 8.55499776 -0.29175731 4.6681169 0 0 Z " fill="#E4D4C5" transform="translate(217,170)"/>
<path d="M0 0 C1.9375 0.3125 1.9375 0.3125 4 1 C4.33 1.99 4.66 2.98 5 4 C9.06250804 7.20919944 9.06250804 7.20919944 14 8 C14.66 7.01 15.32 6.02 16 5 C15.75 7.375 15.75 7.375 15 10 C12.9375 11.3125 12.9375 11.3125 11 12 C11 11.34 11 10.68 11 10 C10.24332031 9.92910156 9.48664063 9.85820312 8.70703125 9.78515625 C5.22671542 8.775714 4.53701606 7.4913521 2.6875 4.4375 C2.17574219 3.61121094 1.66398437 2.78492188 1.13671875 1.93359375 C0.76160156 1.29550781 0.38648437 0.65742188 0 0 Z " fill="#CFB297" transform="translate(108,162)"/>
<path d="M0 0 C1.32 0.33 2.64 0.66 4 1 C4.90413673 4.83724172 5.10576898 8.37502274 5.0625 12.3125 C5.05347656 13.38113281 5.04445312 14.44976562 5.03515625 15.55078125 C5.02355469 16.35902344 5.01195312 17.16726562 5 18 C2.68622795 14.52934193 2.11015527 11.32959845 1.375 7.3125 C1.2409375 6.61060547 1.106875 5.90871094 0.96875 5.18554688 C0.6397283 3.45818294 0.31904688 1.72923409 0 0 Z " fill="#D4BBA3" transform="translate(212,152)"/>
<path d="M0 0 C1.73546076 2.60319113 2.65175233 4.52267237 3.625 7.4375 C3.88539063 8.19933594 4.14578125 8.96117187 4.4140625 9.74609375 C5 12 5 12 5 16 C4.01 16 3.02 16 2 16 C-0.27141454 10.60539047 -0.20413361 5.73842251 0 0 Z " fill="#D4BBA3" transform="translate(197,160)"/>
<path d="M0 0 C2.6855594 2.6855594 3.06049974 5.37621328 4 9 C4.66 9 5.32 9 6 9 C6 11.97 6 14.94 6 18 C5.01 17.67 4.02 17.34 3 17 C2.86722656 16.21753906 2.73445312 15.43507812 2.59765625 14.62890625 C2.42105469 13.61699219 2.24445313 12.60507813 2.0625 11.5625 C1.88847656 10.55316406 1.71445313 9.54382813 1.53515625 8.50390625 C1.25248903 6.0712562 1.25248903 6.0712562 0 5 C-0.04063832 3.33382885 -0.042721 1.66611905 0 0 Z " fill="#C4A180" transform="translate(201,185)"/>
<path d="M0 0 C1.58294782 -0.05437607 3.16644256 -0.09296271 4.75 -0.125 C5.63171875 -0.14820313 6.5134375 -0.17140625 7.421875 -0.1953125 C10.1135858 0.00860498 11.69904974 0.63448279 14 2 C13.67 3.32 13.34 4.64 13 6 C13 5.01 13 4.02 13 3 C8.38 3 3.76 3 -1 3 C-0.67 2.01 -0.34 1.02 0 0 Z " fill="#C8A788" transform="translate(129,147)"/>
<path d="M0 0 C0.875 2.1875 0.875 2.1875 1 4 C0.01 3.67 -0.98 3.34 -2 3 C-2 2.01 -2 1.02 -2 0 C-7.94 0 -13.88 0 -20 0 C-14.73356755 -5.26643245 -5.6992935 -3.89220044 0 0 Z " fill="#C4A180" transform="translate(214,149)"/>
<path d="M0 0 C3.81695526 3.52613962 6.72774752 7.55374918 9.75 11.75 C10.25660156 12.44738281 10.76320313 13.14476562 11.28515625 13.86328125 C12.52661661 15.57321722 13.76374599 17.28629616 15 19 C14.34 19.33 13.68 19.66 13 20 C8.29167017 15.79613408 5.7083672 10.64243167 3 5 C2.34 5 1.68 5 1 5 C0.67 3.35 0.34 1.7 0 0 Z " fill="#D4BAA2" transform="translate(110,189)"/>
<path d="M0 0 C2.64 0 5.28 0 8 0 C7.360625 0.556875 6.72125 1.11375 6.0625 1.6875 C3.80319013 4.22066561 3.36850953 5.68341424 3 9 C2.01 9 1.02 9 0 9 C0 6.03 0 3.06 0 0 Z " fill="#E8DACD" transform="translate(170,187)"/>
<path d="M0 0 C0.66 0.33 1.32 0.66 2 1 C0.93153324 6.11500044 -0.23901947 11.06925452 -2 16 C-2.33 16.99 -2.66 17.98 -3 19 C-3.33 19 -3.66 19 -4 19 C-4.02712066 17.56260487 -4.04645067 16.12506137 -4.0625 14.6875 C-4.07410156 13.88699219 -4.08570313 13.08648437 -4.09765625 12.26171875 C-4 10 -4 10 -3 7 C-2.34 7 -1.68 7 -1 7 C-0.67 4.69 -0.34 2.38 0 0 Z " fill="#BF9975" transform="translate(274,178)"/>
<path d="M0 0 C-1.4375 2 -1.4375 2 -4 4 C-7.02824418 4.35442445 -9.96485939 4.23347235 -13 4 C-13 3.01 -13 2.02 -13 1 C-11.39796533 0.63631108 -9.79325797 0.28438048 -8.1875 -0.0625 C-7.29417969 -0.25972656 -6.40085938 -0.45695313 -5.48046875 -0.66015625 C-3 -1 -3 -1 0 0 Z " fill="#C19C79" transform="translate(141,211)"/>
<path d="M0 0 C0.66 0.33 1.32 0.66 2 1 C2.6328125 3.06640625 2.6328125 3.06640625 3.125 5.5625 C3.29257813 6.38878906 3.46015625 7.21507812 3.6328125 8.06640625 C3.75398437 8.70449219 3.87515625 9.34257812 4 10 C3.34 9.67 2.68 9.34 2 9 C2 8.34 2 7.68 2 7 C-0.475 8.485 -0.475 8.485 -3 10 C-2.25 3.375 -2.25 3.375 0 0 Z " fill="#E7D8CB" transform="translate(236,181)"/>
<path d="M0 0 C2 1 2 1 2.8515625 3.06640625 C3.10679687 3.89011719 3.36203125 4.71382812 3.625 5.5625 C3.88539063 6.38878906 4.14578125 7.21507812 4.4140625 8.06640625 C4.60742188 8.70449219 4.80078125 9.34257812 5 10 C5.99 9.34 6.98 8.68 8 8 C7.34 10.97 6.68 13.94 6 17 C3.38832897 14.38832897 2.92868518 12.0278941 1.875 8.5 C1.52179688 7.3346875 1.16859375 6.169375 0.8046875 4.96875 C0 2 0 2 0 0 Z " fill="#E7D9CC" transform="translate(247,166)"/>
<path d="M0 0 C0.76441406 0.07605469 1.52882813 0.15210937 2.31640625 0.23046875 C4.79302133 0.91005558 5.80173561 1.87362271 7.4375 3.8125 C7.1075 4.8025 6.7775 5.7925 6.4375 6.8125 C6.07011719 6.34199219 5.70273438 5.87148437 5.32421875 5.38671875 C2.74345609 3.2334116 0.55327474 3.08674808 -2.75 2.625 C-4.38001953 2.38716797 -4.38001953 2.38716797 -6.04296875 2.14453125 C-7.29013672 1.98017578 -7.29013672 1.98017578 -8.5625 1.8125 C-5.49109569 0.00044142 -3.53472701 -0.41268386 0 0 Z " fill="#CAAA8B" transform="translate(95.5625,69.1875)"/>
<path d="M0 0 C1.50416548 3.00833096 0.60839737 5.34961578 0.0625 8.625 C-0.13214844 9.81351563 -0.32679687 11.00203125 -0.52734375 12.2265625 C-0.68332031 13.14179688 -0.83929688 14.05703125 -1 15 C-3 14 -3 14 -4 11 C-3.73046875 8.5546875 -3.73046875 8.5546875 -3.1875 5.875 C-3.01605469 4.98554688 -2.84460938 4.09609375 -2.66796875 3.1796875 C-2.44753906 2.46039063 -2.22710937 1.74109375 -2 1 C-1.34 0.67 -0.68 0.34 0 0 Z " fill="#C8A788" transform="translate(125,152)"/>
<path d="M0 0 C2 1 2 1 4 3 C4.36933645 5.75372909 4.18336678 8.20365661 4 11 C4.66 11 5.32 11 6 11 C6 12.65 6 14.3 6 16 C4 15 4 15 2.9296875 12.12890625 C2.58164063 10.95199219 2.23359375 9.77507812 1.875 8.5625 C1.52179688 7.38816406 1.16859375 6.21382812 0.8046875 5.00390625 C0 2 0 2 0 0 Z " fill="#D4BBA3" transform="translate(243,151)"/>
<path d="M0 0 C4.70697582 0.42790689 8.775232 2.55219329 12 6 C12 7.32 12 8.64 12 10 C11.34 10 10.68 10 10 10 C9.79375 9.401875 9.5875 8.80375 9.375 8.1875 C7.49625845 5.19859299 5.13805167 4.50364976 2 3 C1.34 2.01 0.68 1.02 0 0 Z " fill="#D0B49A" transform="translate(203,30)"/>
<path d="M0 0 C1.58409994 0.11487748 3.16728963 0.24234508 4.75 0.375 C6.07257813 0.47941406 6.07257813 0.47941406 7.421875 0.5859375 C9.99066382 0.99850055 11.75841015 1.71160957 14 3 C14 4.65 14 6.3 14 8 C13.49210938 7.66226563 12.98421875 7.32453125 12.4609375 6.9765625 C8.40088512 4.34589186 4.712194 2.29585335 0 1 C0 0.67 0 0.34 0 0 Z " fill="#C4A07E" transform="translate(200,28)"/>
<path d="M0 0 C0.66 0.66 1.32 1.32 2 2 C1.51660156 2.38027344 1.03320312 2.76054687 0.53515625 3.15234375 C-1.52727805 5.634612 -1.43077894 7.37145101 -1.5625 10.5625 C-1.79166667 15.79166667 -1.79166667 15.79166667 -4 18 C-4.23626374 4.53296703 -4.23626374 4.53296703 -1.4375 1.0625 C-0.7259375 0.5365625 -0.7259375 0.5365625 0 0 Z " fill="#D3B9A0" transform="translate(103,184)"/>
<path d="M0 0 C1.6168484 3.23369679 0.00851816 6.30628257 -0.9375 9.625 C-1.13279297 10.33140625 -1.32808594 11.0378125 -1.52929688 11.765625 C-2.01314492 13.51219844 -2.50575123 15.25634124 -3 17 C-3.33 17 -3.66 17 -4 17 C-3.85890014 14.89551062 -3.71195825 12.7914123 -3.5625 10.6875 C-3.48128906 9.51574219 -3.40007812 8.34398437 -3.31640625 7.13671875 C-3 4 -3 4 -2 1 C-1.34 0.67 -0.68 0.34 0 0 Z " fill="#D6BDA6" transform="translate(229,150)"/>
<path d="M0 0 C1.32 0 2.64 0 4 0 C3.835 0.9075 3.67 1.815 3.5 2.75 C2.89862854 6.11087503 2.89862854 6.11087503 3 10 C2.01 10 1.02 10 0 10 C0 6.7 0 3.4 0 0 Z " fill="#E5D6C8" transform="translate(170,164)"/>
<path d="M0 0 C2.7930115 4.18951725 1.91461658 7.20875168 1 12 C-0.0625 15.0625 -0.0625 15.0625 -1 17 C-1.33 17 -1.66 17 -2 17 C-2.25706972 11.08739655 -1.2982126 5.76081841 0 0 Z " fill="#BF9974" transform="translate(279,155)"/>
<path d="M0 0 C1.21236328 0.01353516 1.21236328 0.01353516 2.44921875 0.02734375 C3.37154297 0.04474609 3.37154297 0.04474609 4.3125 0.0625 C4.3125 0.7225 4.3125 1.3825 4.3125 2.0625 C3.42498047 2.15337891 3.42498047 2.15337891 2.51953125 2.24609375 C-1.59728208 2.68262371 -5.64294533 3.14921346 -9.6875 4.0625 C-6.9209694 -0.0872959 -4.6801992 -0.06782897 0 0 Z " fill="#C5A282" transform="translate(92.6875,145.9375)"/>
<path d="M0 0 C0.33 0 0.66 0 1 0 C1.49914707 6.73848545 0.19940966 12.0098644 -3 18 C-3.66 18.33 -4.32 18.66 -5 19 C-3.43247063 12.63583076 -1.85735533 6.28643343 0 0 Z " fill="#DAC4AF" transform="translate(273,164)"/>
<path d="M0 0 C0.33 0.99 0.66 1.98 1 3 C0.01 3.99 -0.98 4.98 -2 6 C-7.75 4.375 -7.75 4.375 -10 1 C-8.68 1 -7.36 1 -6 1 C-6 1.66 -6 2.32 -6 3 C-3.13275314 2.42655063 -2.1385485 2.1385485 0 0 Z " fill="#D8C0AA" transform="translate(125,171)"/>
<path d="M0 0 C0.33 0 0.66 0 1 0 C1 1.65 1 3.3 1 5 C0.01 5.33 -0.98 5.66 -2 6 C-2.33 6.99 -2.66 7.98 -3 9 C-3.66 8.67 -4.32 8.34 -5 8 C-2.25 2.25 -2.25 2.25 0 0 Z " fill="#CAAA8C" transform="translate(266,200)"/>
<path d="M0 0 C1.31157516 2.62315032 0.89649988 4.23033436 0.5625 7.125 C0.46066406 8.03507812 0.35882813 8.94515625 0.25390625 9.8828125 C0.12822266 10.93082031 0.12822266 10.93082031 0 12 C-2.63033454 9.36966546 -2.77962372 7.67293796 -3 4 C-1.5625 1.625 -1.5625 1.625 0 0 Z " fill="#C09A77" transform="translate(118,37)"/>
<path d="M0 0 C2.34058637 2.12780579 3.70700306 4.11562221 5 7 C3.35 7.33 1.7 7.66 0 8 C0 5.36 0 2.72 0 0 Z " fill="#ECE0D6" transform="translate(99,173)"/>
<path d="M0 0 C0.33 0.66 0.66 1.32 1 2 C0.29296875 3.91015625 0.29296875 3.91015625 -0.8125 6.0625 C-1.16957031 6.77535156 -1.52664062 7.48820313 -1.89453125 8.22265625 C-3 10 -3 10 -5 11 C-3.92289822 6.69159287 -2.96052484 3.36423277 0 0 Z " fill="#CFB398" transform="translate(232,199)"/>
<path d="M0 0 C0 2.97 0 5.94 0 9 C-2 8 -2 8 -3.125 4.9375 C-3.41375 3.968125 -3.7025 2.99875 -4 2 C-1 0 -1 0 0 0 Z " fill="#ECE1D6" transform="translate(126,179)"/>
<path d="M0 0 C0.33 0.66 0.66 1.32 1 2 C1.66 2 2.32 2 3 2 C3 4.97 3 7.94 3 11 C0.43383368 7.15075052 0.44902324 4.5650696 0 0 Z " fill="#CBAB8D" transform="translate(204,192)"/>
<path d="M0 0 C2.31 0 4.62 0 7 0 C5.1875 2 5.1875 2 3 4 C2.01 4 1.02 4 0 4 C0 2.68 0 1.36 0 0 Z " fill="#E2D0C0" transform="translate(171,187)"/>
<path d="M0 0 C1.60031344 3.20062687 0.03173691 5.72271806 -1 9 C-1.99 9 -2.98 9 -4 9 C-3.35455571 5.51460083 -1.89865603 2.97180943 0 0 Z " fill="#D7BEA8" transform="translate(259,155)"/>
<path d="M0 0 C3.80881639 1.44472346 5.29742886 3.32603071 7 7 C6.67 7.99 6.34 8.98 6 10 C4.99723227 8.52270825 3.99785546 7.04311423 3 5.5625 C2.443125 4.73878906 1.88625 3.91507813 1.3125 3.06640625 C0 1 0 1 0 0 Z " fill="#D4BAA1" transform="translate(101,152)"/>
<path d="M0 0 C-2 2 -2 2 -4.6015625 2.1953125 C-5.59929687 2.17210937 -6.59703125 2.14890625 -7.625 2.125 C-9.12933594 2.09792969 -9.12933594 2.09792969 -10.6640625 2.0703125 C-11.43492187 2.04710937 -12.20578125 2.02390625 -13 2 C-13 1.67 -13 1.34 -13 1 C-11.39796533 0.63631108 -9.79325797 0.28438048 -8.1875 -0.0625 C-7.29417969 -0.25972656 -6.40085938 -0.45695313 -5.48046875 -0.66015625 C-3 -1 -3 -1 0 0 Z " fill="#C7A586" transform="translate(141,211)"/>
<path d="M0 0 C4 1 4 1 5.8125 3.9375 C6.204375 4.948125 6.59625 5.95875 7 7 C6.67 7.66 6.34 8.32 6 9 C4.02 6.03 2.04 3.06 0 0 Z " fill="#D5BBA3" transform="translate(108,162)"/>
<path d="M0 0 C1.40907283 2.81814566 0.50872691 4.17277204 -0.4375 7.125 C-0.72496094 8.03507812 -1.01242188 8.94515625 -1.30859375 9.8828125 C-1.53675781 10.58148438 -1.76492187 11.28015625 -2 12 C-2.33 12 -2.66 12 -3 12 C-3.36923077 4.61538462 -3.36923077 4.61538462 -1.5 1.5 C-1.005 1.005 -0.51 0.51 0 0 Z " fill="#C5A180" transform="translate(85,72)"/>
<path d="M0 0 C2.97 0 5.94 0 9 0 C6 3 6 3 3.3125 3.1875 C2.1678125 3.0946875 2.1678125 3.0946875 1 3 C0.67 2.01 0.34 1.02 0 0 Z " fill="#BA9069" transform="translate(127,59)"/>
<path d="M0 0 C0.33 0.66 0.66 1.32 1 2 C0.0625 4.625 0.0625 4.625 -1 7 C-1.66 6.67 -2.32 6.34 -3 6 C-3.625 3.4375 -3.625 3.4375 -4 1 C-2.68 0.67 -1.36 0.34 0 0 Z " fill="#EFE5DC" transform="translate(222,177)"/>
</svg>
