<?xml version="1.0" encoding="UTF-8"?>
<svg version="1.1" xmlns="http://www.w3.org/2000/svg" width="224" height="200">
<path d="M0 0 C1.12775345 0.00212242 1.12775345 0.00212242 2.27828979 0.00428772 C4.6829626 0.0098916 7.08754277 0.02244468 9.4921875 0.03515625 C11.12109241 0.04017075 12.74999877 0.04473375 14.37890625 0.04882812 C18.37503577 0.05986228 22.37109592 0.07712946 26.3671875 0.09765625 C26.6971875 0.75765625 27.0271875 1.41765625 27.3671875 2.09765625 C29.6812497 2.82841273 32.01547619 3.49903883 34.3671875 4.09765625 C34.3671875 5.08765625 34.3671875 6.07765625 34.3671875 7.09765625 C33.44421875 7.10023437 32.52125 7.1028125 31.5703125 7.10546875 C12.80093557 7.6618732 -3.3566946 13.26223416 -18.0390625 24.99609375 C-19.6328125 26.09765625 -19.6328125 26.09765625 -21.6328125 26.09765625 C-21.88546875 26.68289062 -22.138125 27.268125 -22.3984375 27.87109375 C-23.77403651 30.35239576 -25.29012753 31.81652847 -27.3828125 33.72265625 C-31.2852459 37.48318298 -33.84368761 41.43849723 -36.40625 46.19140625 C-36.81101562 46.82046875 -37.21578125 47.44953125 -37.6328125 48.09765625 C-38.2928125 48.09765625 -38.9528125 48.09765625 -39.6328125 48.09765625 C-39.74109375 48.65195312 -39.849375 49.20625 -39.9609375 49.77734375 C-40.75536344 52.52088451 -42.00071423 54.72205578 -43.3828125 57.22265625 C-46.07735183 62.50759812 -47.9172826 67.76141966 -49.5078125 73.47265625 C-49.83023926 74.61371826 -49.83023926 74.61371826 -50.15917969 75.77783203 C-51.26417034 79.92656966 -52.16804826 83.77660659 -51.6328125 88.09765625 C-48.59755764 90.12115949 -47.43855048 90.41889643 -43.9453125 90.72265625 C-43.13707031 90.79742187 -42.32882813 90.8721875 -41.49609375 90.94921875 C-40.57376953 91.02269531 -40.57376953 91.02269531 -39.6328125 91.09765625 C-39.6328125 95.09765625 -39.6328125 95.09765625 -41.6328125 97.28515625 C-42.08269531 97.69507812 -42.53257813 98.105 -42.99609375 98.52734375 C-45.83575029 101.25178749 -48.31095171 104.31314256 -50.86328125 107.3046875 C-51.44722656 107.89636719 -52.03117187 108.48804687 -52.6328125 109.09765625 C-53.2928125 109.09765625 -53.9528125 109.09765625 -54.6328125 109.09765625 C-54.8596875 109.63390625 -55.0865625 110.17015625 -55.3203125 110.72265625 C-57.08851339 113.92225786 -59.16951453 116.38802848 -61.6328125 119.09765625 C-62.2928125 119.09765625 -62.9528125 119.09765625 -63.6328125 119.09765625 C-63.6328125 119.75765625 -63.6328125 120.41765625 -63.6328125 121.09765625 C-65.6128125 121.59265625 -65.6128125 121.59265625 -67.6328125 122.09765625 C-67.6328125 122.75765625 -67.6328125 123.41765625 -67.6328125 124.09765625 C-72.0878125 124.59265625 -72.0878125 124.59265625 -76.6328125 125.09765625 C-76.6328125 124.10765625 -76.6328125 123.11765625 -76.6328125 122.09765625 C-77.22376709 122.000896 -77.81472168 121.90413574 -78.42358398 121.80444336 C-81.09789068 120.94886618 -82.11769575 119.86988677 -83.98046875 117.7890625 C-84.58568359 117.12455078 -85.19089844 116.46003906 -85.81445312 115.77539062 C-86.43513672 115.07736328 -87.05582031 114.37933594 -87.6953125 113.66015625 C-88.93347035 112.28399938 -90.17425513 110.91020035 -91.41796875 109.5390625 C-91.96332275 108.92748291 -92.50867676 108.31590332 -93.07055664 107.68579102 C-94.74529444 105.87521634 -94.74529444 105.87521634 -97.6328125 104.09765625 C-98.65147479 102.44233002 -99.65092063 100.77505487 -100.6328125 99.09765625 C-101.1896875 98.60265625 -101.7465625 98.10765625 -102.3203125 97.59765625 C-104.17544141 95.47750892 -103.72599389 93.830977 -103.6328125 91.09765625 C-102.94574219 91.071875 -102.25867188 91.04609375 -101.55078125 91.01953125 C-100.64972656 90.9628125 -99.74867187 90.90609375 -98.8203125 90.84765625 C-97.92699219 90.80125 -97.03367187 90.75484375 -96.11328125 90.70703125 C-93.51931769 90.29805629 -93.51931769 90.29805629 -91.83203125 88.28515625 C-90.33393754 85.55247717 -90.31425285 83.06817135 -90.07421875 80.00390625 C-89.4893139 76.15285132 -88.37430774 72.55403299 -87.1953125 68.84765625 C-86.97762207 68.16219727 -86.75993164 67.47673828 -86.53564453 66.77050781 C-85.36323794 63.15536694 -84.09454324 59.60581001 -82.6328125 56.09765625 C-81.9728125 56.09765625 -81.3128125 56.09765625 -80.6328125 56.09765625 C-80.16875 54.92203125 -80.16875 54.92203125 -79.6953125 53.72265625 C-78.6328125 51.09765625 -78.6328125 51.09765625 -77.6328125 49.09765625 C-76.9728125 49.09765625 -76.3128125 49.09765625 -75.6328125 49.09765625 C-75.3028125 47.44765625 -74.9728125 45.79765625 -74.6328125 44.09765625 C-73.9728125 44.09765625 -73.3128125 44.09765625 -72.6328125 44.09765625 C-72.4059375 43.41703125 -72.1790625 42.73640625 -71.9453125 42.03515625 C-68.66670822 34.69732762 -63.7027312 30.1145285 -57.6328125 25.09765625 C-56.61710784 24.22295609 -55.60287613 23.34654366 -54.58984375 22.46875 C-53.5212354 21.55291607 -52.45222594 20.63754996 -51.3828125 19.72265625 C-50.38765625 18.86929687 -49.3925 18.0159375 -48.3671875 17.13671875 C-45.94379902 15.32956334 -44.5750774 14.47594745 -41.6328125 14.09765625 C-41.6328125 13.43765625 -41.6328125 12.77765625 -41.6328125 12.09765625 C-40.97796875 11.86691406 -40.323125 11.63617188 -39.6484375 11.3984375 C-34.5278109 9.56860907 -29.49824916 7.63432354 -24.5078125 5.47265625 C-19.5710866 3.37711895 -14.88904256 2.1149911 -9.6328125 1.09765625 C-6.56686656 -0.43531672 -3.36169397 -0.0236583 0 0 Z " fill="#5F8994" transform="translate(103.6328125,0.90234375)"/>
<path d="M0 0 C9.45799128 1.91392741 16.88690677 12.72570917 22.74609375 19.77734375 C24.45054035 21.61322777 26.30595351 22.98276319 28.31640625 24.46875 C30.1250016 27.05245764 30.3729544 28.05406356 29.94140625 31.21875 C29.73515625 31.96125 29.52890625 32.70375 29.31640625 33.46875 C28.60613281 33.52933594 27.89585937 33.58992188 27.1640625 33.65234375 C26.24496094 33.73613281 25.32585937 33.81992188 24.37890625 33.90625 C23.46238281 33.98746094 22.54585937 34.06867188 21.6015625 34.15234375 C19.35480893 34.22919976 19.35480893 34.22919976 18.31640625 35.46875 C17.82149703 37.58553041 17.37129161 39.71281288 16.94140625 41.84375 C16.40215586 44.38593041 15.86055799 46.92761421 15.31640625 49.46875 C15.11273438 50.42007813 14.9090625 51.37140625 14.69921875 52.3515625 C12.14062563 62.93339825 6.932989 72.71156016 0.578125 81.50390625 C-0.79901553 83.50190852 -0.79901553 83.50190852 -1.6953125 86.109375 C-2.87131302 88.91690192 -4.25918957 89.60516289 -6.80859375 91.125 C-9.24954835 92.87435079 -11.12923768 94.96673892 -13.18359375 97.15625 C-30.04333657 114.34558178 -54.02518257 122.19011775 -77.68359375 122.46875 C-79.11068124 122.46173688 -80.537765 122.4539211 -81.96484375 122.4453125 C-85.56356472 122.3528176 -85.56356472 122.3528176 -88.55859375 123.03125 C-92.2595705 123.54938675 -95.52619427 123.18349654 -99.21875 122.72265625 C-101.7251802 122.46446613 -104.16581424 122.42835782 -106.68359375 122.46875 C-106.68359375 121.14875 -106.68359375 119.82875 -106.68359375 118.46875 C-106.09457275 118.35805176 -105.50555176 118.24735352 -104.89868164 118.13330078 C-102.18086501 117.62163034 -99.46347976 117.10770228 -96.74609375 116.59375 C-95.35680664 116.33271484 -95.35680664 116.33271484 -93.93945312 116.06640625 C-91.1853138 115.54456932 -88.43433605 115.0081751 -85.68359375 114.46875 C-84.88477783 114.32042725 -84.08596191 114.17210449 -83.26293945 114.01928711 C-77.9918511 112.96982173 -73.50543467 111.26117003 -68.74609375 108.78125 C-68.05588135 108.42603271 -67.36566895 108.07081543 -66.65454102 107.70483398 C-56.95711651 102.61745602 -50.0978877 97.38155025 -43.68359375 88.46875 C-42.33582794 86.81767095 -40.98148172 85.17194476 -39.62109375 83.53125 C-30.44868126 71.99517737 -21.45661408 56.35088001 -21.62109375 41.21875 C-21.63011719 40.14109375 -21.63914062 39.0634375 -21.6484375 37.953125 C-21.66003906 37.13328125 -21.67164063 36.3134375 -21.68359375 35.46875 C-25.10265607 34.73896695 -28.18229504 34.36871289 -31.68359375 34.46875 C-32.01359375 33.47875 -32.34359375 32.48875 -32.68359375 31.46875 C-31.609375 29.3828125 -31.609375 29.3828125 -29.99609375 27.09375 C-29.44050781 26.30355469 -28.88492188 25.51335937 -28.3125 24.69921875 C-24.50391391 19.48410446 -24.50391391 19.48410446 -22.68359375 17.46875 C-22.02359375 17.46875 -21.36359375 17.46875 -20.68359375 17.46875 C-20.30847656 16.60056641 -20.30847656 16.60056641 -19.92578125 15.71484375 C-18.51839624 13.17004381 -16.91076444 11.53426169 -14.80859375 9.53125 C-12.38694239 7.21356936 -10.57631749 5.30264483 -8.74609375 2.46875 C-5.91352997 -0.27797852 -3.82475355 -0.05321396 0 0 Z " fill="#35223E" transform="translate(192.68359375,76.53125)"/>
<path d="M0 0 C0.515625 1.093125 1.03125 2.18625 1.5625 3.3125 C8.6163287 17.78518506 8.6163287 17.78518506 21 27 C22.33333333 28.33333333 23.66666667 29.66666667 25 31 C25.99 31.33 26.98 31.66 28 32 C28.33 32.66 28.66 33.32 29 34 C40.63736092 39.04987011 52.26687962 41.90201677 65 41 C65.33 40.67 65.66 40.34 66 40 C67.55317178 39.62560078 69.1183039 39.30023483 70.6875 39 C71.58597656 38.82726562 72.48445313 38.65453125 73.41015625 38.4765625 C76.2683888 37.95061322 79.12930906 37.45326699 82 37 C82 36.34 82 35.68 82 35 C84.97 34.01 87.94 33.02 91 32 C91 31.34 91 30.68 91 30 C92.32 30.33 93.64 30.66 95 31 C94.01 32.98 93.02 34.96 92 37 C91.34 37 90.68 37 90 37 C89.75894531 37.56589844 89.51789063 38.13179687 89.26953125 38.71484375 C87.7450348 41.45893735 85.91341048 43.35155362 83.6875 45.5625 C82.92824219 46.32691406 82.16898437 47.09132812 81.38671875 47.87890625 C75.62430939 53 75.62430939 53 72 53 C72 53.66 72 54.32 72 55 C70.68 55 69.36 55 68 55 C68 55.99 68 56.98 68 58 C67.34773438 58.19335938 66.69546875 58.38671875 66.0234375 58.5859375 C62.16190713 59.73642295 58.31614567 60.89273629 54.5 62.1875 C52 63 52 63 50 63 C50 63.66 50 64.32 50 65 C47.00444785 65.86582119 44.332749 66.12855175 41.21875 66.1328125 C40.2994873 66.13490723 39.38022461 66.13700195 38.43310547 66.13916016 C37.46518066 66.1344873 36.49725586 66.12981445 35.5 66.125 C34.01910889 66.11992432 34.01910889 66.11992432 32.50830078 66.11474609 C13.50039077 65.98033726 13.50039077 65.98033726 8 63 C7.0925 62.731875 6.185 62.46375 5.25 62.1875 C-2.97810025 59.18107875 -8.89766245 53.55254911 -15.16796875 47.62109375 C-17.87021977 45.01055001 -17.87021977 45.01055001 -20.61328125 43.12890625 C-23.76803376 40.31492897 -25.2240797 37.28803352 -27 33.5 C-27.3417627 32.79456055 -27.68352539 32.08912109 -28.03564453 31.36230469 C-30.53999164 26.13614947 -32.84233862 20.83526416 -34.9921875 15.453125 C-35.94664299 13.01731275 -35.94664299 13.01731275 -37.1328125 10.859375 C-38 9 -38 9 -38 6 C-35 5 -35 5 -32.375 5.8125 C-30 7 -30 7 -29 9 C-24.62669456 9.72888424 -20.4383722 10.13869913 -16 10 C-16 9.01 -16 8.02 -16 7 C-15.154375 6.773125 -14.30875 6.54625 -13.4375 6.3125 C-9.91826002 4.96879019 -7.52958271 3.34307038 -4.61328125 1.0234375 C-3 0 -3 0 0 0 Z " fill="#FFFFFF" transform="translate(54,121)"/>
<path d="M0 0 C0.97525635 0.00257812 1.9505127 0.00515625 2.95532227 0.0078125 C7.94230727 0.11178925 12.06795618 0.55290374 16.75 2.4375 C17.9875 2.6540625 17.9875 2.6540625 19.25 2.875 C22.41185301 3.58641693 24.88516267 4.92082142 27.75 6.4375 C29.20674935 7.16982607 30.6651251 7.89892465 32.125 8.625 C33.33333333 9.22916667 34.54166667 9.83333333 35.75 10.4375 C35.75 11.0975 35.75 11.7575 35.75 12.4375 C36.28625 12.64375 36.8225 12.85 37.375 13.0625 C40.66978009 14.97000426 43.34363628 17.48569384 45.75 20.4375 C45.75 21.0975 45.75 21.7575 45.75 22.4375 C46.41 22.4375 47.07 22.4375 47.75 22.4375 C47.75 23.0975 47.75 23.7575 47.75 24.4375 C48.32878906 24.45941406 48.90757812 24.48132813 49.50390625 24.50390625 C53.03651508 25.97224279 54.07828773 29.10127606 55.6875 32.375 C56.03377441 33.05433594 56.38004883 33.73367187 56.73681641 34.43359375 C57.430815 35.79896407 58.11906187 37.16727452 58.80126953 38.53857422 C59.61752028 40.17233602 60.46053342 41.79267778 61.30859375 43.41015625 C63.71789344 48.03572568 65.53259137 52.36496405 66.75 57.4375 C66.95625 58.241875 67.1625 59.04625 67.375 59.875 C67.49875 60.390625 67.6225 60.90625 67.75 61.4375 C64.32613278 61.0095166 61.88910978 60.00079751 58.9375 58.3125 C54.44487458 55.95557341 51.64812108 56.35825298 46.75 57.4375 C43.60505565 58.48581478 42.95867915 59.14387166 40.75 61.4375 C39.904375 62.076875 39.05875 62.71625 38.1875 63.375 C35.85766221 65.34640121 34.84805816 66.64244288 33.75 69.4375 C30.75 68.4375 30.75 68.4375 29.35546875 66.03125 C28.65357422 64.49984375 28.65357422 64.49984375 27.9375 62.9375 C25.27258823 57.39815022 22.35847726 52.40569333 18.75 47.4375 C18.15445313 46.57898437 17.55890625 45.72046875 16.9453125 44.8359375 C12.32222464 38.54185403 7.99048668 35.27530365 0.75 32.4375 C0.11578125 32.15519531 -0.5184375 31.87289062 -1.171875 31.58203125 C-12.78291282 26.69447901 -24.85101578 25.80005222 -37.25 26.4375 C-38.920625 26.48970703 -38.920625 26.48970703 -40.625 26.54296875 C-49.46978122 27.29087304 -55.25650237 31.21395699 -62.23046875 36.3203125 C-65.25 38.4375 -65.25 38.4375 -67.25 38.4375 C-66.375 33.6875 -66.375 33.6875 -65.25 31.4375 C-64.59 31.4375 -63.93 31.4375 -63.25 31.4375 C-62.97671875 30.8496875 -62.7034375 30.261875 -62.421875 29.65625 C-59.39020586 23.91628977 -54.88017556 19.61977314 -49.25 16.4375 C-48.486875 16.251875 -47.72375 16.06625 -46.9375 15.875 C-46.380625 15.730625 -45.82375 15.58625 -45.25 15.4375 C-44.92 14.4475 -44.59 13.4575 -44.25 12.4375 C-41.8515625 11.05078125 -41.8515625 11.05078125 -38.875 9.75 C-37.89789063 9.31300781 -36.92078125 8.87601563 -35.9140625 8.42578125 C-33.25 7.4375 -33.25 7.4375 -30.25 7.4375 C-30.25 6.7775 -30.25 6.1175 -30.25 5.4375 C-20.12336032 1.89760099 -10.77261309 -0.04137676 0 0 Z " fill="#FFFFFF" transform="translate(140.25,13.5625)"/>
<path d="M0 0 C7.92 0 15.84 0 24 0 C24.99 3.3 25.98 6.6 27 10 C27.99 6.7 28.98 3.4 30 0 C31.98 0 33.96 0 36 0 C37.32 2.97 38.64 5.94 40 9 C40.99 6.03 41.98 3.06 43 0 C45.31 0 47.62 0 50 0 C48.56933303 8.1698614 46.35862583 16.05394988 44 24 C41.36 24 38.72 24 36 24 C35.01 21.03 34.02 18.06 33 15 C32.01 17.97 31.02 20.94 30 24 C27.69 24 25.38 24 23 24 C20.85671642 17.70695459 18.87724961 11.37732315 17 5 C16.67 5.33 16.34 5.66 16 6 C14.48071962 6.07179964 12.95832518 6.08392007 11.4375 6.0625 C10.61121094 6.05347656 9.78492187 6.04445313 8.93359375 6.03515625 C8.29550781 6.02355469 7.65742187 6.01195313 7 6 C7 6.99 7 7.98 7 9 C9.64 9 12.28 9 15 9 C15 10.98 15 12.96 15 15 C12.36 15 9.72 15 7 15 C7 15.99 7 16.98 7 18 C9.97 18 12.94 18 16 18 C16 19.98 16 21.96 16 24 C10.72 24 5.44 24 0 24 C0 16.08 0 8.16 0 0 Z " fill="#FFFFFF" transform="translate(101,88)"/>
<path d="M0 0 C8 0 8 0 10.53125 2.40625 C11.1809375 3.4271875 11.830625 4.448125 12.5 5.5 C13.50546875 7.03140625 13.50546875 7.03140625 14.53125 8.59375 C15.0159375 9.3878125 15.500625 10.181875 16 11 C16.33 7.37 16.66 3.74 17 0 C19.31 0 21.62 0 24 0 C24 7.92 24 15.84 24 24 C17 24 17 24 14.34765625 21.375 C13.562352 20.26633518 12.80094319 19.14041313 12.0625 18 C11.66482422 17.42765625 11.26714844 16.8553125 10.85742188 16.265625 C9.88387842 14.8580923 8.93897788 13.43082343 8 12 C7.67 15.96 7.34 19.92 7 24 C4.69 24 2.38 24 0 24 C0 16.08 0 8.16 0 0 Z " fill="#FFFFFF" transform="translate(73,88)"/>
<path d="M0 0 C0.66 0 1.32 0 2 0 C3.5625 2.8125 3.5625 2.8125 5 6 C4.67 6.99 4.34 7.98 4 9 C0 2.25 0 2.25 0 0 Z " fill="#FFFFFF" transform="translate(193,38)"/>
<path d="M0 0 C1.32 0.33 2.64 0.66 4 1 C3.67 1.66 3.34 2.32 3 3 C2.01 2.67 1.02 2.34 0 2 C0 1.34 0 0.68 0 0 Z " fill="#FFFFFF" transform="translate(138,46)"/>
<path d="" fill="#FFFFFF" transform="translate(0,0)"/>
<path d="M0 0 C2 1 2 1 2 1 Z " fill="#5F8994" transform="translate(40,28)"/>
<path d="" fill="#FFFFFF" transform="translate(0,0)"/>
<path d="" fill="#FFFFFF" transform="translate(0,0)"/>
<path d="" fill="#FFFFFF" transform="translate(0,0)"/>
<path d="" fill="#FFFFFF" transform="translate(0,0)"/>
<path d="" fill="#FFFFFF" transform="translate(0,0)"/>
<path d="" fill="#FFFFFF" transform="translate(0,0)"/>
<path d="" fill="#FFFFFF" transform="translate(0,0)"/>
<path d="" fill="#5F8994" transform="translate(0,0)"/>
<path d="" fill="#5F8994" transform="translate(0,0)"/>
</svg>
