<?xml version="1.0" encoding="UTF-8"?>
<svg version="1.1" xmlns="http://www.w3.org/2000/svg" width="224" height="200">
<path d="M0 0 C1.53618922 1.14637159 3.05778177 2.31262129 4.5625 3.5 C5.30628906 4.06847656 6.05007812 4.63695313 6.81640625 5.22265625 C24.28700695 19.53335699 34.36197457 43.56548216 37.5625 65.5 C38.45576579 80.16434405 38.51853738 94.5550713 33.5625 108.5 C33.18867188 109.55832031 32.81484375 110.61664063 32.4296875 111.70703125 C27.39320469 124.69848857 20.16977013 134.64823347 10.5625 144.5 C9.99015625 145.14582031 9.4178125 145.79164063 8.828125 146.45703125 C-6.01667365 162.79396172 -32.02028012 173.49386412 -53.80273438 174.62255859 C-74.20796051 175.25400314 -96.40116087 173.04357005 -113.4375 160.5 C-116.41500101 156.42656735 -117.13912771 153.39964515 -116.9765625 148.44140625 C-115.10117353 138.20830554 -108.2617243 129.05115254 -101.4375 121.5 C-100.69693359 120.63955078 -100.69693359 120.63955078 -99.94140625 119.76171875 C-97.60672396 117.80301127 -95.17715543 117.98370689 -92.2421875 118.0703125 C-86.38057049 118.96833182 -80.94167674 121.37059986 -75.4375 123.5 C-63.62900147 127.94715947 -51.65779527 125.42037129 -40.4375 120.4375 C-26.92186847 113.23919068 -18.06540647 100.86685249 -13.4375 86.5 C-10.87264374 75.81309892 -12.69091944 64.83324604 -18.125 55.3125 C-26.18854111 43.03080478 -37.71792669 32.77751931 -52.4375 29.5 C-53.23542969 29.31953125 -54.03335938 29.1390625 -54.85546875 28.953125 C-67.48776022 26.73626296 -77.08570268 30.46991693 -87.4375 37.5 C-88.62120753 38.43720349 -89.79077609 39.39289096 -90.9375 40.375 C-93.4375 42.5 -93.4375 42.5 -95.4375 42.5 C-92.86687812 45.40592038 -90.14518826 47.35110498 -86.875 49.375 C-82.95194249 51.96667391 -80.72624068 53.80530181 -79.4375 58.5 C-79.28226876 66.02871494 -79.28226876 66.02871494 -81.6796875 69.08203125 C-83.82157298 70.80981887 -86.04574415 72.13673368 -88.4375 73.5 C-89.42363281 74.08136719 -90.40976563 74.66273437 -91.42578125 75.26171875 C-99.58954877 79.99113989 -107.87054206 84.36702819 -116.35791016 88.48681641 C-118.46730684 89.514522 -120.56743423 90.55978992 -122.66796875 91.60546875 C-147.52344458 103.82560372 -147.52344458 103.82560372 -159.4375 101.5 C-163.30279634 99.45795665 -164.80392168 98.14517395 -166.3671875 94.0859375 C-167.26406942 90.58162568 -167.89206619 87.0719166 -168.4375 83.5 C-168.63255127 82.24823975 -168.63255127 82.24823975 -168.83154297 80.97119141 C-170.87376604 67.50791399 -172.06678726 54.10824695 -172.4375 40.5 C-172.47875 39.28699219 -172.52 38.07398438 -172.5625 36.82421875 C-172.9435641 16.93743616 -172.9435641 16.93743616 -167.9375 10.75 C-163.89986187 7.11612569 -160.91822879 6.99689218 -155.6015625 7.00390625 C-150.69300264 7.77351996 -147.08362816 10.19100863 -142.96875 12.87109375 C-140.47022833 14.62656668 -140.47022833 14.62656668 -137.4375 15.5 C-137.169375 14.91734375 -136.90125 14.3346875 -136.625 13.734375 C-128.90855398 -0.78472739 -110.75896868 -11.44759049 -95.49560547 -16.21240234 C-63.41528153 -25.62924721 -27.69642873 -18.67700801 0 0 Z " fill="#FCFCFC" transform="translate(179.4375,22.5)"/>
<path d="M0 0 C1.53618922 1.14637159 3.05778177 2.31262129 4.5625 3.5 C5.30628906 4.06847656 6.05007812 4.63695313 6.81640625 5.22265625 C24.28700695 19.53335699 34.36197457 43.56548216 37.5625 65.5 C38.45576579 80.16434405 38.51853738 94.5550713 33.5625 108.5 C33.18867188 109.55832031 32.81484375 110.61664063 32.4296875 111.70703125 C27.39320469 124.69848857 20.16977013 134.64823347 10.5625 144.5 C9.99015625 145.14582031 9.4178125 145.79164063 8.828125 146.45703125 C-6.01667365 162.79396172 -32.02028012 173.49386412 -53.80273438 174.62255859 C-74.20796051 175.25400314 -96.40116087 173.04357005 -113.4375 160.5 C-116.41500101 156.42656735 -117.13912771 153.39964515 -116.9765625 148.44140625 C-115.10117353 138.20830554 -108.2617243 129.05115254 -101.4375 121.5 C-100.69693359 120.63955078 -100.69693359 120.63955078 -99.94140625 119.76171875 C-97.60672396 117.80301127 -95.17715543 117.98370689 -92.2421875 118.0703125 C-86.38057049 118.96833182 -80.94167674 121.37059986 -75.4375 123.5 C-63.62900147 127.94715947 -51.65779527 125.42037129 -40.4375 120.4375 C-26.92186847 113.23919068 -18.06540647 100.86685249 -13.4375 86.5 C-10.87264374 75.81309892 -12.69091944 64.83324604 -18.125 55.3125 C-26.18854111 43.03080478 -37.71792669 32.77751931 -52.4375 29.5 C-53.23542969 29.31953125 -54.03335938 29.1390625 -54.85546875 28.953125 C-67.48776022 26.73626296 -77.08570268 30.46991693 -87.4375 37.5 C-88.62120753 38.43720349 -89.79077609 39.39289096 -90.9375 40.375 C-93.4375 42.5 -93.4375 42.5 -95.4375 42.5 C-92.86687812 45.40592038 -90.14518826 47.35110498 -86.875 49.375 C-82.95194249 51.96667391 -80.72624068 53.80530181 -79.4375 58.5 C-79.28226876 66.02871494 -79.28226876 66.02871494 -81.6796875 69.08203125 C-83.82157298 70.80981887 -86.04574415 72.13673368 -88.4375 73.5 C-89.42363281 74.08136719 -90.40976563 74.66273437 -91.42578125 75.26171875 C-99.58954877 79.99113989 -107.87054206 84.36702819 -116.35791016 88.48681641 C-118.46730684 89.514522 -120.56743423 90.55978992 -122.66796875 91.60546875 C-147.52344458 103.82560372 -147.52344458 103.82560372 -159.4375 101.5 C-163.30279634 99.45795665 -164.80392168 98.14517395 -166.3671875 94.0859375 C-167.26406942 90.58162568 -167.89206619 87.0719166 -168.4375 83.5 C-168.63255127 82.24823975 -168.63255127 82.24823975 -168.83154297 80.97119141 C-170.87376604 67.50791399 -172.06678726 54.10824695 -172.4375 40.5 C-172.47875 39.28699219 -172.52 38.07398438 -172.5625 36.82421875 C-172.9435641 16.93743616 -172.9435641 16.93743616 -167.9375 10.75 C-163.89986187 7.11612569 -160.91822879 6.99689218 -155.6015625 7.00390625 C-150.69300264 7.77351996 -147.08362816 10.19100863 -142.96875 12.87109375 C-140.47022833 14.62656668 -140.47022833 14.62656668 -137.4375 15.5 C-137.169375 14.91734375 -136.90125 14.3346875 -136.625 13.734375 C-128.90855398 -0.78472739 -110.75896868 -11.44759049 -95.49560547 -16.21240234 C-63.41528153 -25.62924721 -27.69642873 -18.67700801 0 0 Z M-131.4375 14.5 C-132.16882621 15.65239281 -132.88028861 16.81786852 -133.5625 18 C-135.4375 20.5 -135.4375 20.5 -138.15234375 20.90625 C-143.38804562 20.25879103 -146.86308962 17.20139636 -151.12109375 14.25 C-154.91940826 12.24570683 -157.20202945 11.97894942 -161.4375 12.5 C-165.46222769 17.46383082 -165.59668851 22.51786726 -165.60546875 28.65625 C-165.60879715 29.47258911 -165.61212555 30.28892822 -165.61555481 31.13000488 C-165.62062414 32.86840249 -165.62296313 34.60680985 -165.62280273 36.34521484 C-165.62494599 38.93474881 -165.64297791 41.52382523 -165.66210938 44.11328125 C-165.70091218 55.69938323 -164.86981298 67.00810296 -163.4375 78.5 C-163.27665983 79.8481969 -163.11669887 81.19649908 -162.95776367 82.54492188 C-162.10323192 90.36666967 -162.10323192 90.36666967 -157.4375 96.5 C-141.8517009 98.46184884 -123.75336366 86.15567644 -110.4375 79.5 C-109.63054687 79.10312988 -108.82359375 78.70625977 -107.9921875 78.29736328 C-93.95880579 71.82232357 -93.95880579 71.82232357 -85.1875 59.9375 C-86.96927432 55.03762063 -90.17097166 53.85252899 -94.58984375 51.34375 C-98.59310579 48.75178884 -100.9644755 45.51736047 -103.4375 41.5 C-102.85500488 41.22526855 -102.27250977 40.95053711 -101.67236328 40.66748047 C-99.50090241 39.53312108 -97.64316656 38.28069731 -95.6796875 36.8203125 C-81.81742175 26.65136518 -71.89870943 21.70315859 -54.4375 23.5 C-38.07302616 26.47696026 -24.6729511 36.15622136 -15.265625 49.58203125 C-8.23464083 60.80456367 -6.10424659 71.41745093 -7.4375 84.5 C-10.9608048 99.58035202 -19.7202297 113.49655813 -32.5625 122.3125 C-45.21411981 129.69698625 -58.86382185 132.90237976 -73.4375 130.5 C-78.12855723 129.1442247 -82.46363733 127.17969842 -86.8359375 125.03125 C-90.50840486 123.4698539 -92.52673016 122.73745435 -96.4375 123.5 C-103.27099148 129.92348199 -109.99158039 140.68352184 -111.9296875 149.8203125 C-112.07092262 152.21241346 -112.07092262 152.21241346 -110.4375 155.5 C-97.98963291 166.50956312 -79.56251107 168.88732163 -63.6875 168.8125 C-62.44194336 168.80686035 -61.19638672 168.8012207 -59.91308594 168.79541016 C-51.3422745 168.68195643 -43.62568829 168.19884316 -35.4375 165.5 C-34.81552734 165.30132324 -34.19355469 165.10264648 -33.55273438 164.89794922 C-8.01068955 156.59740642 12.39106947 140.43744845 24.69433594 116.30712891 C35.35712514 94.11197545 34.90087191 69.99595773 27.4296875 47.015625 C18.97630542 23.61487195 4.14860325 6.26663692 -18.3828125 -4.41796875 C-56.83509357 -21.7021896 -102.80051476 -18.92171844 -131.4375 14.5 Z " fill="#050505" transform="translate(179.4375,22.5)"/>
</svg>
